<?xml version="1.0" encoding="utf-8"?>
<!-- Generator: Adobe Illustrator 22.0.1, SVG Export Plug-In . SVG Version: 6.00 Build 0)  -->
<svg version="1.1" id="Layer_1" xmlns="http://www.w3.org/2000/svg" xmlns:xlink="http://www.w3.org/1999/xlink" x="0px" y="0px"
	 viewBox="0 0 548 390.3" style="enable-background:new 0 0 548 390.3;" xml:space="preserve">
<style type="text/css">
	.st0{fill:none;stroke:#D0D8DC;stroke-width:2;stroke-miterlimit:10;}
	.st1{fill:#D0D8DC;}
	.st2{fill:#546E7A;}
	.st3{fill:#FFFFFF;}
	.st4{fill:#EEEEEE;}
	.st5{fill:#E4F2FB;}
	.st6{fill:#ECEFF0;}
	.st7{fill:#BDDDF4;}
	.st8{fill:#95C8EC;}
	.st9{fill:#99CF8C;}
	.st10{fill:#B0BEC5;}
	.st11{fill:#FFFFFF;stroke:#FFFFFF;stroke-width:0.69;stroke-miterlimit:10;}
	.st12{fill:#71BE71;}
	.st13{fill:#70B2E2;}
	.st14{fill:#FFFFFF;stroke:#FFFFFF;stroke-width:0.75;stroke-miterlimit:10;}
	.st15{fill:#CBEAFB;}
	.st16{fill:#81C784;}
	.st17{fill:#F4AE7A;}
	.st18{fill:#57A7DB;}
	.st19{fill:#FC6142;}
	.st20{fill:#FCD156;}
	.st21{fill:#EAEAEA;}
	.st22{fill:#CFD0D1;}
</style>
<polyline class="st0" points="244.4,52.8 501.4,52.8 501.4,114 501.4,344.6 130.5,344.6 130.5,321.6 "/>
<path id="_Path_3_1_" class="st1" d="M134.2,322.6v-5.9h1.4c2.2,0,4.1-1.8,4.1-4.1v-37.5c0-2.2-1.8-4.1-4.1-4.1h-1.4v-5.9h-7.4v5.9
	h-1.4c-2.2,0-4.1,1.8-4.1,4.1v37.5c0,2.2,1.8,4.1,4.1,4.1h1.4v5.9H134.2z"/>
<path id="_Path_3_2_" class="st1" d="M240.3,55.7h5.9v1.4c0,2.2,1.8,4.1,4.1,4.1h37.5c2.2,0,4.1-1.8,4.1-4.1v-1.4h5.9v-7.4h-5.9
	v-1.4c0-2.2-1.8-4.1-4.1-4.1h-37.5c-2.2,0-4.1,1.8-4.1,4.1v1.4h-5.9V55.7z"/>
<g>
	<circle class="st9" cx="445.4" cy="343.7" r="46.6"/>
</g>
<g>
	<circle class="st8" cx="324.9" cy="343.7" r="46.6"/>
	<path class="st3" d="M351.1,321.1h-52.5c-1.7,0-3,1.4-3,3.1v39c0,1.7,1.4,3,3,3h52.5c1.7,0,3.1-1.4,3.1-3v-39.1
		C354,322.4,352.8,321,351.1,321.1z M316.4,324.6c1.3,0,2.3,1,2.3,2.3s-1,2.3-2.3,2.3s-2.3-1-2.3-2.3S315.2,324.6,316.4,324.6z
		 M309.9,324.6c1.3,0,2.3,1,2.3,2.3s-1,2.3-2.3,2.3s-2.3-1-2.3-2.3S308.6,324.6,309.9,324.6z M303.3,324.6c1.3,0,2.3,1,2.3,2.3
		s-1,2.3-2.3,2.3s-2.3-1-2.3-2.3C301,325.6,302,324.6,303.3,324.6L303.3,324.6L303.3,324.6z M351.4,363.2c0,0.2-0.1,0.3-0.3,0.3
		h-52.5c-0.2,0-0.3-0.1-0.3-0.3l0,0v-31.7h53.2v31.7H351.4z"/>
	<path class="st3" d="M324.9,334.7c-7.2,0-13,5.8-13,13s5.8,13,13,13s13-5.8,13-13C337.8,340.6,332,334.7,324.9,334.7z M322.1,352.9
		c-0.5-1.4-0.8-2.7-0.9-4.1h7.2c-0.1,1.4-0.5,2.9-0.9,4.1H322.1z M326.5,355.2c-0.5,0.9-1,1.7-1.6,2.5c-0.6-0.8-1.1-1.7-1.6-2.5
		H326.5z M314.1,348.8h4.9c0.1,1.4,0.3,2.9,0.8,4.1h-4.3C314.7,351.7,314.2,350.2,314.1,348.8L314.1,348.8z M327.6,342.6
		c0.5,1.3,0.7,2.5,0.8,3.9h-7.2c0.1-1.4,0.3-2.6,0.8-3.9H327.6z M323,340.3c0.5-0.9,1-1.8,1.7-2.7c0.7,0.8,1.3,1.7,1.7,2.7H323z
		 M318.9,346.5h-4.8c0.1-1.4,0.6-2.6,1.3-3.9h4.3C319.4,343.9,319,345.1,318.9,346.5L318.9,346.5z M330.6,348.8h4.9
		c-0.1,1.5-0.6,2.9-1.3,4.1h-4.3C330.2,351.5,330.6,350.2,330.6,348.8L330.6,348.8z M330.6,346.5c-0.1-1.4-0.3-2.6-0.7-3.9h4.3
		c0.7,1.1,1,2.5,1.3,3.9H330.6z M332.5,340.3h-3.4c-0.5-1-1-2.1-1.6-3.1C329.3,337.8,331.2,338.8,332.5,340.3L332.5,340.3z
		 M322.2,337.4c-0.7,0.9-1.1,1.9-1.7,3h-3.4C318.5,338.8,320.3,337.8,322.2,337.4L322.2,337.4z M317.1,355.2h3.5c0.5,1,1,2.1,1.7,3
		C320.3,357.7,318.5,356.7,317.1,355.2z M327.3,358.2c0.7-0.9,1.3-1.9,1.7-3h3.5C331,356.7,329.2,357.7,327.3,358.2L327.3,358.2z"/>
</g>
<g>
	
		<ellipse transform="matrix(0.2298 -0.9732 0.9732 0.2298 276.7115 575.2728)" class="st10" cx="501.8" cy="112.8" rx="46.6" ry="46.6"/>
	<path class="st11" d="M507.2,92.7h-0.5c1-1.3,1.7-2.7,1.7-4.3v-3.7c0-3.7-3-6.6-6.6-6.6s-6.6,3-6.6,6.6v3.7c0,1.6,0.6,3.2,1.7,4.3
		h-0.6c-4.6,0-8.2,3.7-8.2,8.2v5.5c0,0.7,0.5,1.1,1.1,1.1h24.9c0.7,0,1.1-0.5,1.1-1.1v-5.6C515.3,96.4,511.6,92.7,507.2,92.7z
		 M501.8,80.2c2.2,0,4,1.6,4.3,3.8l-1.9-1.1c-0.5-0.2-1-0.1-1.4,0.2c-0.9,1.1-2.3,1.7-3.8,1.7h-1.6v-0.2l0,0
		C497.3,82.2,499.3,80.2,501.8,80.2z M497.3,87.1h1.6c1.8,0,3.5-0.7,4.8-1.8l2.4,1.4v1.7c0,2.4-1.9,4.3-4.3,4.3s-4.3-1.9-4.3-4.3
		L497.3,87.1L497.3,87.1z M513.1,105.4h-22.8v-4.6c0-3.3,2.6-5.9,5.9-5.9h4.2v2.2c0.1,0.6,0.8,1,1.4,0.8c0.5-0.1,0.7-0.5,0.8-0.8
		v-2.2h4.2c3.3,0,5.9,2.6,5.9,5.9l0,0L513.1,105.4z"/>
	<path class="st11" d="M490.5,122.3H489c0.6-0.9,0.9-1.9,0.9-3v-1c0.2-2.9-1.8-5.4-4.7-5.6s-5.4,1.8-5.6,4.7c0,0.3,0,0.7,0,0.9v1
		c0,1,0.3,2.1,0.9,3H479c-3.1,0-5.6,2.4-5.6,5.5v5.9c0,0.7,0.5,1.1,1.1,1.1H495c0.7,0,1.1-0.5,1.1-1.1v-5.9
		C495.9,124.7,493.5,122.3,490.5,122.3L490.5,122.3z M481.7,118.3c0.1-1.6,1.5-2.9,3.1-2.7c1.5,0.1,2.6,1.3,2.7,2.7v1
		c-0.1,1.6-1.5,2.9-3.1,2.7c-1.5-0.1-2.6-1.3-2.7-2.7V118.3z M493.8,132.6h-18.2v-4.8c0-1.8,1.5-3.3,3.3-3.3l0,0h4.7v2.3
		c-0.1,0.6,0.2,1.3,0.8,1.4c0.6,0.1,1.3-0.2,1.4-0.8c0-0.2,0-0.3,0-0.6v-2.3h4.7c1.8,0,3.3,1.5,3.3,3.3l0,0L493.8,132.6L493.8,132.6
		z"/>
	<path class="st11" d="M524.5,122.3H523c0.6-0.9,0.9-1.9,0.9-3v-1c-0.2-2.9-2.7-4.9-5.6-4.7c-2.5,0.2-4.5,2.2-4.7,4.7v1
		c0,1,0.3,2.1,0.9,3H513c-3.1,0-5.6,2.4-5.6,5.5v5.9c0,0.7,0.5,1.1,1.1,1.1H529c0.7,0,1.1-0.5,1.1-1.1v-5.9
		C530.1,124.7,527.6,122.3,524.5,122.3L524.5,122.3z M515.8,118.3c0.1-1.6,1.5-2.9,3.1-2.7c1.5,0.1,2.6,1.3,2.7,2.7v1
		c-0.1,1.6-1.5,2.9-3.1,2.7c-1.5-0.1-2.6-1.3-2.7-2.7V118.3z M527.8,132.6h-18.2v-4.8c0-1.8,1.5-3.3,3.3-3.3l0,0h4.7v2.3
		c-0.1,0.6,0.2,1.3,0.8,1.4c0.6,0.1,1.3-0.2,1.4-0.8c0-0.2,0-0.3,0-0.6v-2.3h4.7c1.8,0,3.3,1.5,3.3,3.3l0,0V132.6z"/>
	<path class="st11" d="M508.6,121.3l-5.8-5.8v-4.7c-0.1-0.6-0.8-1-1.4-0.8c-0.5,0.1-0.7,0.5-0.8,0.8v4.7l-5.8,5.8
		c-0.3,0.6-0.1,1.3,0.5,1.6c0.3,0.2,0.8,0.2,1.1,0l5.4-5.4l5.4,5.4c0.6,0.3,1.3,0.1,1.6-0.5C508.9,122.1,508.9,121.6,508.6,121.3
		L508.6,121.3z"/>
	<path class="st11" d="M502.5,100.6c-0.5-0.5-1.1-0.5-1.6,0s-0.5,1.1,0,1.6s1.1,0.5,1.6,0c0.2-0.2,0.3-0.6,0.3-0.8
		S502.7,100.8,502.5,100.6z"/>
</g>
<g>
	<circle class="st12" cx="393.2" cy="52" r="46.6"/>
	<path class="st3" d="M377.3,37.4c1.8,18,7.4,30,16.3,34.9c8.9-4.9,14.4-16.9,16.3-34.9c-7.1-1.2-12.7-3.7-16.3-5.7
		C390,33.7,384.4,36.2,377.3,37.4z"/>
	<path class="st3" d="M393.6,23.6L393.6,23.6L393.6,23.6C393.6,23.6,393.5,23.6,393.6,23.6C393.5,23.6,393.5,23.6,393.6,23.6
		c-0.6,0.4-9.9,7.3-23.6,7.6c1.4,29.6,11.3,43.8,23.6,48.6l0,0l0,0l0,0l0,0c12.3-4.7,22.1-18.9,23.6-48.6
		C403.4,30.9,394.2,24,393.6,23.6z M393.7,76L393.7,76h-0.2c-11.4-5.2-18.2-19.5-19.9-41.6c9.5-1,16.6-4.6,20-6.7
		c3.3,2.1,10.4,5.7,20,6.7C411.9,56.5,405.1,70.8,393.7,76z"/>
</g>
<g>
	
		<ellipse transform="matrix(0.2425 -0.9701 0.9701 0.2425 149.1451 666.0366)" class="st13" cx="501.1" cy="237.5" rx="46.6" ry="46.6"/>
	<g>
		<path class="st14" d="M501,250.4c-2.2,0-4,1.6-4,4c0,2.2,1.8,3.8,4,3.8c2.5,0,4-1.6,4-3.8C505,252,503.4,250.4,501,250.4
			L501,250.4z M501,256.4c-0.9,0-1.8-0.9-1.8-1.8c0-1.3,0.9-2.2,1.8-2.2c1.3,0,2.2,0.9,2.2,2.2C503.2,255.5,502.2,256.4,501,256.4
			L501,256.4z"/>
		<path class="st14" d="M525.6,262.3c0-12.7,0-12.7,0-12.7c0-8.3-6.9-15.2-15.2-15.2c-1.3,0-1.3,0-1.3,0c0.3-0.3,0.6-0.6,0.9-0.9
			c1.3,0,1.3,0,1.3,0c2.9,0,5-2.2,5-5c0-1.6,0-1.6,0-1.6c1.3-0.9,2.2-2.2,2.2-3.8s-0.9-3.1-2.2-3.8c0-8.3-6.9-15-15.2-15
			c-8.1,0-15,6.5-15.2,15c-0.9,0.6-1.8,2.2-1.8,3.8c0,2.2,2.2,4.3,4.7,4.3c0.6,0,0.6,0,0.6,0c0.3,2.7,1.8,5.3,4,6.9
			c-1.3,0-1.3,0-1.3,0c-8.5,0-15.2,6.9-15.2,15.2c0,12.7,0,12.7,0,12.7c-5.9,0-5.9,0-5.9,0c0,2.2,0,2.2,0,2.2c6.9,0,6.9,0,6.9,0
			c5.3,0,5.3,0,5.3,0c36.5,0,36.5,0,36.5,0c5,0,5,0,5,0c7.2,0,7.2,0,7.2,0c0-2.2,0-2.2,0-2.2L525.6,262.3L525.6,262.3z M514.4,228.4
			c0,1.6-1.3,2.7-2.9,3.1c0.9-1.3,1.3-2.7,1.6-4c0.6,0,0.6,0,0.6,0c0.3,0,0.3,0,0.6,0v0.9H514.4z M516.2,223.1
			c0,1.3-0.9,2.5-2.5,2.5c-0.3,0-0.3,0-0.3,0c0-5,0-5,0-5c0.3,0,0.3,0,0.3,0C515.3,220.6,516.2,221.6,516.2,223.1L516.2,223.1z
			 M488.8,225.6c-0.3,0-0.3,0-0.3,0c-1.6,0-2.9-1.3-2.9-2.5c0-1.6,1.3-2.5,2.9-2.5c0.3,0,0.3,0,0.3,0V225.6z M488.6,218.4
			c-0.3,0-0.3,0-0.6,0c0.6-6.5,6.2-11.8,13-11.8c7.2,0,12.8,5.3,13.4,11.8c-0.3,0-0.3,0-0.6,0c-0.6,0-0.6,0-0.6,0
			c-0.9-5.6-5.9-9.9-12.1-9.9c-5.9,0-10.9,4.3-11.8,9.9H488.6z M511.2,220.4c-7.4,0-12.1-3.1-12.1-5.9c0-0.3-0.6-0.9-0.9-0.9
			c-0.6,0-1.3,0.6-1.3,0.9c0,2.5-2.5,4.7-5.9,5c0.6-5,5-9,9.9-9C506.6,210.4,511.2,215,511.2,220.4L511.2,220.4z M491,225.6
			c0-4,0-4,0-4c3.1-0.3,5.9-1.8,7.2-4c2.2,2.7,7.2,4.7,13,5c0,3.1,0,3.1,0,3.1c0,2.2-0.6,4-2.2,5.9c-8.1,0-8.1,0-8.1,0
			c0,1.8,0,1.8,0,1.8c6.2,0,6.2,0,6.2,0c-0.6,0.6-1.3,0.9-1.8,1.3c-2.9,1.3-5.9,1.3-8.5,0C493.5,233.1,491,229.4,491,225.6
			L491,225.6z M497.8,237.2c1.3,0.3,2.2,0.3,3.1,0.3c1.3,0,2.2,0,3.1-0.3c-3.1,5.9-3.1,5.9-3.1,5.9L497.8,237.2z M499.4,244.3
			c-1.8,0-1.8,0-1.8,0c-4.1-7.8-4.1-7.8-4.1-7.8c1.8,0,1.8,0,1.8,0L499.4,244.3z M506.8,236.5c1.6,0,1.6,0,1.6,0c-4,7.8-4,7.8-4,7.8
			c-1.6,0-1.6,0-1.6,0L506.8,236.5z M481.7,249.5c0,12.7,0,12.7,0,12.7c-2.9,0-2.9,0-2.9,0c0-12.7,0-12.7,0-12.7
			c0-7.2,5.6-12.7,12.5-13c4,7.8,4,7.8,4,7.8c-8.5,0-8.5,0-8.5,0C484.1,244.3,481.7,246.8,481.7,249.5L481.7,249.5z M518.4,262.3
			c-34.5,0-34.5,0-34.5,0c0-12.7,0-12.7,0-12.7c0-1.8,1.3-3.1,3.1-3.1c9.9,0,9.9,0,9.9,0c4,0,4,0,4,0c4,0,4,0,4,0
			c10.3,0,10.3,0,10.3,0c1.6,0,3.1,1.3,3.1,3.1L518.4,262.3L518.4,262.3z M523.4,262.3c-3.1,0-3.1,0-3.1,0c0-12.7,0-12.7,0-12.7
			c0-2.7-2.2-5.3-5-5.3c-8.5,0-8.5,0-8.5,0c4-7.8,4-7.8,4-7.8c6.9,0.3,12.5,5.9,12.5,13v12.7h0.1V262.3z"/>
	</g>
</g>
<g>
	<rect x="0.2" y="0.1" class="st15" width="269.5" height="299"/>
	<rect x="0.2" y="289" class="st2" width="269.5" height="15"/>
	<rect x="0.2" class="st2" width="269.5" height="22.7"/>
	<rect x="36.4" y="251.1" class="st3" width="18.1" height="3.8"/>
	<rect x="119.7" y="251.1" class="st16" width="18.1" height="3.8"/>
	<rect x="36.4" y="239.8" class="st3" width="75.2" height="3.8"/>
	<rect x="18.3" y="273.9" class="st17" width="9.6" height="3.8"/>
	<rect x="18.3" y="46.1" class="st17" width="11.2" height="3.8"/>
	<rect x="18.3" y="68.9" class="st16" width="12.7" height="3.8"/>
	<rect x="36.4" y="68.9" class="st3" width="35.7" height="3.8"/>
	<rect x="28.1" y="80.4" class="st3" width="19.4" height="3.8"/>
	<rect x="105.8" y="80.4" class="st3" width="19.4" height="3.8"/>
	<rect x="129.4" y="80.4" class="st18" width="19.4" height="3.8"/>
	<rect x="54.3" y="80.4" class="st3" width="44.6" height="3.8"/>
	<rect x="36.4" y="91.7" class="st18" width="25.9" height="3.8"/>
	<rect x="69.6" y="91.7" class="st3" width="55.7" height="3.8"/>
	<rect x="47.8" y="114.4" class="st16" width="16.2" height="3.8"/>
	<rect x="47.8" y="125.9" class="st17" width="16.2" height="3.8"/>
	<rect x="71" y="114.4" class="st3" width="49.6" height="3.8"/>
	<rect x="71" y="125.9" class="st3" width="68.9" height="3.8"/>
	<rect x="59.2" y="137.3" class="st18" width="16.4" height="3.8"/>
	<rect x="71" y="148.7" class="st3" width="110.2" height="3.8"/>
	<rect x="71" y="160.2" class="st3" width="36.4" height="3.8"/>
	<rect x="114.1" y="160.2" class="st18" width="16.3" height="3.8"/>
	<rect x="136" y="160.2" class="st3" width="16.3" height="3.8"/>
	<rect x="29.7" y="171.4" class="st17" width="11.2" height="3.8"/>
	<rect x="34.7" y="182.8" class="st18" width="27.9" height="3.8"/>
	<rect x="187.1" y="182.8" class="st18" width="19.6" height="3.8"/>
	<rect x="69.1" y="182.8" class="st3" width="109.6" height="3.8"/>
	<rect x="51.1" y="194.2" class="st3" width="93" height="3.8"/>
	<rect x="51.1" y="205.6" class="st3" width="112.4" height="3.8"/>
	<rect x="44.5" y="217" class="st18" width="13.1" height="3.8"/>
	<rect x="29.7" y="228.4" class="st18" width="19.6" height="3.8"/>
	<rect x="61.3" y="251.1" class="st3" width="50.2" height="3.8"/>
	<circle class="st19" cx="14.9" cy="11.2" r="4.3"/>
	<circle class="st16" cx="29.5" cy="11.2" r="4.3"/>
	<circle class="st20" cx="44.2" cy="11.2" r="4.3"/>
</g>
<path class="st3" d="M458.5,311.3h-26.2c-1.9,0-3.5,1.5-3.5,3.5v57.9c0,1.9,1.5,3.5,3.5,3.5h26.2c1.9,0,3.5-1.5,3.5-3.5v-57.9
	C461.9,312.8,460.4,311.3,458.5,311.3z M441.2,313.9h8.4c0.8,0,1.5,0.6,1.5,1.5s-0.7,1.5-1.5,1.5h-8.4c-0.8,0-1.5-0.6-1.5-1.5
	S440.4,313.9,441.2,313.9z M448.8,370.3c0,1.9-1.5,3.4-3.4,3.4c-1.9,0-3.4-1.5-3.4-3.4v0c0-1.9,1.5-3.4,3.4-3.4
	S448.8,368.4,448.8,370.3L448.8,370.3z M459.9,364.8h-28.9v-45.1h28.9V364.8z"/>
<g>
	<rect x="264" y="207.9" class="st2" width="11.3" height="23.2"/>
	<path class="st8" d="M336.8,151.6c-1.2-14.3-11.5-25.9-25.1-29.2c-1.9-16.5-15.9-29.2-32.9-29.2c-16.7,0-30.5,12.4-32.8,28.5
		c-15.7,1.7-28.1,14.4-29.4,30.2c-2.4-0.8-4.9-1.2-7.5-1.2c-13.5,0-24.4,10.9-24.4,24.4s10.9,24.4,24.4,24.4h121
		c13.5,0,24.4-10.9,24.4-24.4C354.6,163.9,347,154.5,336.8,151.6z"/>
	<path class="st13" d="M336.8,151.6c-1.2-14.3-11.5-25.9-25.1-29.2c-1.9-16.5-15.9-29.2-32.9-29.2c-3.2,0-6.2,0.4-9.1,1.3v105.1
		h60.5c13.5,0,24.4-10.9,24.4-24.4C354.6,163.9,347,154.5,336.8,151.6z"/>
	<path class="st21" d="M329.9,213.2H209.5c-2.4,0-4.3-1.9-4.3-4.3v-33.1c0-2.4,1.9-4.3,4.3-4.3h120.4c2.4,0,4.3,1.9,4.3,4.3v33.1
		C334.2,211.3,332.2,213.2,329.9,213.2z"/>
	<path class="st22" d="M329.9,171.5h-60.2v41.7h60.2c2.4,0,4.3-1.9,4.3-4.3v-33.1C334.2,173.4,332.2,171.5,329.9,171.5z"/>
	<circle class="st19" cx="224" cy="192.4" r="5.4"/>
	<path class="st12" d="M253.2,197.7h-12.5c-2.9,0-5.4-2.4-5.4-5.4l0,0c0-2.9,2.4-5.4,5.4-5.4h12.5c2.9,0,5.4,2.4,5.4,5.4l0,0
		C258.6,195.3,256.2,197.7,253.2,197.7z"/>
	<path class="st2" d="M321.5,197.7h-38.4c-2.9,0-5.4-2.4-5.4-5.4l0,0c0-2.9,2.4-5.4,5.4-5.4h38.4c2.9,0,5.4,2.4,5.4,5.4l0,0
		C326.8,195.3,324.4,197.7,321.5,197.7z"/>
	<path class="st21" d="M329.9,265.2H209.5c-2.4,0-4.3-1.9-4.3-4.3v-33.1c0-2.4,1.9-4.3,4.3-4.3h120.4c2.4,0,4.3,1.9,4.3,4.3v33.1
		C334.2,263.2,332.2,265.2,329.9,265.2z"/>
	<path class="st22" d="M329.9,223.5h-60.2v41.7h60.2c2.4,0,4.3-1.9,4.3-4.3v-33.1C334.2,225.4,332.2,223.5,329.9,223.5z"/>
	<circle class="st19" cx="224" cy="244.3" r="5.4"/>
	<path class="st12" d="M253.2,249.7h-12.5c-2.9,0-5.4-2.4-5.4-5.4v0c0-2.9,2.4-5.4,5.4-5.4h12.5c2.9,0,5.4,2.4,5.4,5.4v0
		C258.6,247.3,256.2,249.7,253.2,249.7z"/>
	<path class="st2" d="M321.5,249.7h-38.4c-2.9,0-5.4-2.4-5.4-5.4v0c0-2.9,2.4-5.4,5.4-5.4h38.4c2.9,0,5.4,2.4,5.4,5.4v0
		C326.8,247.3,324.4,249.7,321.5,249.7z"/>
</g>
</svg>
