<?xml version="1.0" encoding="utf-8"?>
<!-- Generator: Adobe Illustrator 22.0.1, SVG Export Plug-In . SVG Version: 6.00 Build 0)  -->
<svg version="1.1" id="Layer_1" xmlns="http://www.w3.org/2000/svg" xmlns:xlink="http://www.w3.org/1999/xlink" x="0px" y="0px"
	 viewBox="0 0 548 390.3" style="enable-background:new 0 0 548 390.3;" xml:space="preserve">
<style type="text/css">
	.st0{clip-path:url(#SVGID_2_);fill:#99CF8C;}
	.st1{clip-path:url(#SVGID_4_);fill:#71BE71;}
	.st2{clip-path:url(#SVGID_6_);fill:#ECEFF0;}
	.st3{clip-path:url(#SVGID_8_);fill:#D0D8DC;}
	.st4{clip-path:url(#SVGID_10_);fill:#CBEAFB;}
	.st5{clip-path:url(#SVGID_12_);fill:#B6D3E0;}
	.st6{clip-path:url(#SVGID_14_);fill:#CBEAFB;}
	.st7{clip-path:url(#SVGID_16_);}
	.st8{fill:#57A7DB;}
	.st9{clip-path:url(#SVGID_18_);fill:#FDD7AD;}
	.st10{clip-path:url(#SVGID_20_);fill:#F7C9A9;}
	.st11{clip-path:url(#SVGID_22_);fill:#79B9E2;}
	.st12{clip-path:url(#SVGID_24_);fill:#57A7DB;}
	.st13{clip-path:url(#SVGID_26_);fill:#FDD7AD;}
	.st14{clip-path:url(#SVGID_28_);fill:#F7C9A9;}
	.st15{clip-path:url(#SVGID_30_);fill:#F4AE7A;}
	.st16{clip-path:url(#SVGID_32_);fill:#ED975D;}
	.st17{fill:#A3D1EE;}
	.st18{fill:#FFFFFF;}
	.st19{fill:#F4AE7A;}
	.st20{fill:#71BE71;}
	.st21{fill:#E4F2FB;}
	.st22{fill:#546E7A;}
	.st23{fill:#CBEAFB;}
	.st24{fill:#FC6142;}
	.st25{fill:#81C784;}
	.st26{fill:#FCD156;}
	.st27{fill:#ECEFF0;}
	.st28{fill:#D0D8DC;}
	.st29{fill:none;stroke:#57A7DB;stroke-width:4;stroke-miterlimit:10;stroke-dasharray:2.933,4.8878;}
	.st30{fill:#FDD7AD;}
	.st31{fill:#99CF8C;}
	.st32{fill:#79B9E2;}
	.st33{fill:#F7C9A9;}
	.st34{fill:#EEEEEE;}
	.st35{fill:#B0BEC5;}
	.st36{fill:#BDDDF4;}
	.st37{fill:#95C8EC;}
	.st38{fill:none;stroke:#D0D8DC;stroke-width:3;stroke-miterlimit:10;}
	.st39{fill:#4F9BC6;}
	.st40{fill:#37474F;}
	.st41{fill:#90A4AE;}
	.st42{fill:#ED7F6E;}
	.st43{fill:#F4BD9F;}
</style>
<g>
	<path class="st8" d="M297.3,64.8c0-2.1-1.8-3.9-3.9-4h-0.1L99.6,62.6h-0.8c-1.5,0-2.8-0.8-3.5-2.1c-14-27.6-47.7-38.7-75.5-24.7
		c-6.7,3.4-12.7,8.2-17.6,14c-1.8,2-1.5,5.1,0.6,6.8c0.8,0.7,2,1.2,3.2,1.2h36.2c1.4,0,2.8,0.8,3.4,2.1l12.6,24.2
		c0.6,1.1,0.6,2.5,0,3.5L45.5,112c-0.7,1.3-2,2.1-3.4,2.1H5.9c-1.9,0-3.6,1.1-4.5,2.8c-0.8,1.8-0.6,3.8,0.7,5.2
		c20,23.8,55.4,26.8,79.1,6.9c5.8-4.8,10.6-10.8,14-17.6c0.7-1.3,2-2.2,3.5-2.1h0.8l193.6,1.3c2.1,0,4-1.6,4-3.8c0,0,0,0,0-0.1
		L297.3,64.8z"/>
</g>
<path class="st22" d="M377.9,389H220.7c-11.5,0-20.8-9.3-20.8-20.8V20.8C200,9.3,209.2,0,220.7,0h157.2c11.5,0,20.8,9.3,20.8,20.8
	v347.5C398.7,379.7,389.4,389,377.9,389z"/>
<rect x="212.5" y="53.1" class="st18" width="173.6" height="270.7"/>
<path class="st18" d="M299.3,377.1L299.3,377.1c-11.4,0-20.7-9.2-20.7-20.7v-0.1c0-11.4,9.2-20.7,20.7-20.7l0,0
	c11.4,0,20.7,9.2,20.7,20.7v0.1C320,367.8,310.7,377.1,299.3,377.1z"/>
<path class="st22" d="M299.3,374L299.3,374c-9.7,0-17.6-7.9-17.6-17.6v-0.1c0-9.7,7.9-17.6,17.6-17.6l0,0c9.7,0,17.6,7.9,17.6,17.6
	v0.1C316.9,366.1,309,374,299.3,374z"/>
<path class="st18" d="M324.4,35.3h-50.2c-4.8,0-8.8-3.9-8.8-8.8l0,0c0-4.8,3.9-8.8,8.8-8.8h50.2c4.8,0,8.8,3.9,8.8,8.8l0,0
	C333.1,31.4,329.2,35.3,324.4,35.3z"/>
<rect x="212.5" y="53.1" class="st23" width="173.6" height="270.7"/>
<path class="st8" d="M386.9,53.1H212.5v36.5h174.4V53.1L386.9,53.1z"/>
<g>
	<circle class="st24" cx="231" cy="71.3" r="5"/>
	<circle class="st25" cx="248.4" cy="71.3" r="5"/>
	<circle class="st26" cx="265.8" cy="71.3" r="5"/>
</g>
<g>
	<path class="st27" d="M230,107.3h141.6v48.4H230V107.3L230,107.3z"/>
	<g>
		<path class="st20" d="M245.2,114.6h55v3.8h-55C245.2,118.4,245.2,114.6,245.2,114.6z"/>
		<path class="st28" d="M245.2,124.2h101.2v3.8H245.2V124.2z"/>
		<path class="st28" d="M245.2,134.3h101.2v3.8H245.2V134.3z"/>
		<path class="st28" d="M245.2,144.5h77.1v3.8h-77.1V144.5z"/>
	</g>
</g>
<g>
	<path class="st27" d="M230,258.9h141.6v48.4H230V258.9L230,258.9z"/>
	<g>
		<path class="st8" d="M245.2,266.3h55v3.8h-55C245.2,270.1,245.2,266.3,245.2,266.3z"/>
		<path class="st28" d="M245.2,275.9h101.2v3.8H245.2V275.9z"/>
		<path class="st28" d="M245.2,285.9h101.2v3.8H245.2V285.9z"/>
		<path class="st28" d="M245.2,296.1h77.1v3.8h-77.1V296.1z"/>
	</g>
</g>
<g>
	<path class="st27" d="M230,180h141.6v54.5H230V180z"/>
	<g>
		<path class="st19" d="M248.7,191.7h56.6v5.7h-56.6V191.7z"/>
		<path class="st28" d="M248.7,204.2h104.1v5.7H248.7V204.2z"/>
		<path class="st28" d="M248.7,217.1h72.1v5.7h-72.1V217.1z"/>
	</g>
</g>
<g id="_Group_">
	<g id="_Group_2">
		<path id="_Compound_Path_" class="st34" d="M165.7,324.9l-1.7,3.2c-2.4-0.5-4.8-0.9-7.2-0.8l-1-3.2c-0.5-2.1-2.8-3.2-4.7-2.7
			c0,0-0.2,0-0.2,0.2l-4.4,1.2c-2.1,0.5-3.2,2.8-2.7,4.7c0,0,0,0.2,0.2,0.2l0.9,3.4c-2,1.3-4.1,2.9-5.8,4.7l-3.2-1.7
			c-1.9-1.1-4.4-0.4-5.5,1.4l0,0l-2,4c-0.9,1.9-0.4,4.4,1.4,5.5l3.2,1.7c-0.5,2.4-0.9,4.8-0.8,7.2l-3.2,1c-2.1,0.5-3.2,2.8-2.7,4.9
			l0,0.2l1.2,4.4c0.5,2.1,2.8,3.2,4.7,2.7c0,0,0.2,0,0.2-0.2l3.2-1c1.3,2,2.9,4.1,4.7,5.8l-1.6,2.8c-0.9,1.9-0.4,4.4,1.4,5.5l4,2.2
			c0.9,0.5,2.1,0.7,3,0.2c1.1-0.3,2-0.9,2.3-1.9l1.7-3.2c2.4,0.5,4.8,0.9,7.2,0.8l1,3.2c0.5,2.1,2.8,3.2,4.7,2.7c0,0,0.2,0,0.2-0.2
			l4.4-1.2c2.1-0.5,3.2-2.8,2.7-4.7c0,0,0-0.2-0.2-0.2l-0.9-3.4c2-1.3,4.1-2.9,5.8-4.7l3.2,1.7c0.9,0.5,2.1,0.7,3,0.2
			c1.1-0.3,2-0.9,2.3-1.9l2-4c0.5-0.9,0.7-2.1,0.3-3.2c-0.3-1.1-0.9-2-1.9-2.3l-3.2-1.7c0.5-2.4,0.9-4.8,0.8-7.2l3.2-1
			c2.1-0.5,3.2-2.8,2.7-4.7c0,0,0-0.2-0.2-0.2L187,341c-0.5-2.1-2.8-3.2-4.7-2.7c0,0-0.2,0-0.2,0.2l-3.1,1.6c-1.3-2-2.9-4.1-4.7-5.8
			l1.7-3c0.5-0.9,0.7-2.1,0.3-3.2c-0.3-1.1-0.9-2-1.9-2.3l-4-2C169,322.4,166.8,323.1,165.7,324.9L165.7,324.9z M173,348.4
			c0.7,2.1,0.8,4.6,0.5,6.8c-0.9,6.2-5.3,11.2-11,13.1c-8.5,2.4-17.4-2.3-19.8-10.6l0,0c-0.7-2.1-0.8-4.6-0.5-6.8
			c0.9-6.2,5.1-11.3,11-13.1C161.4,335.1,170.3,339.8,173,348.4C172.8,348.1,173,348.2,173,348.4z"/>
		<path id="_Compound_Path_2" class="st34" d="M182.6,287.1l-0.9,1.7c-1.4-0.2-2.8-0.4-4.2-0.4l-0.5-1.9c-0.3-1.1-1.6-1.7-2.6-1.4
			l0,0l-2.3,0.7c-1.1,0.3-1.7,1.6-1.4,2.6l0,0l0.5,1.9c-1.1,0.7-2.3,1.5-3,2.4l-1.7-0.9c-1.1-0.6-2.4-0.3-3,0.8l-1.1,2.1
			c-0.6,1.1-0.1,2.4,0.8,3l1.7,0.9c-0.2,1.4-0.4,2.8-0.4,4.2l-1.9,0.5c-1.1,0.3-1.7,1.6-1.4,2.6l0,0l0.7,2.3
			c0.3,1.1,1.6,1.7,2.6,1.4l0,0l1.9-0.5c0.7,1.1,1.5,2.3,2.4,3l-0.9,1.7c-0.5,0.9-0.3,2.4,0.8,3l2.1,1.1c0.4,0.3,1,0.3,1.6,0.2
			c0.6-0.1,1.1-0.5,1.4-1l0.9-1.7c1.4,0.2,2.8,0.4,4.2,0.4l0.5,1.9c0.3,1.1,1.6,1.7,2.6,1.4l0,0l2.3-0.7c1.1-0.3,1.7-1.6,1.4-2.6
			l0,0l-0.5-1.9c1.1-0.7,2.3-1.5,3-2.4l1.7,0.9c0.4,0.3,1,0.3,1.6,0.2s1.1-0.5,1.4-1l1.1-2.1c0.3-0.4,0.3-1,0.2-1.6s-0.5-1.1-1-1.4
			l-1.7-0.9c0.2-1.4,0.4-2.8,0.4-4.2l1.9-0.5c1.1-0.3,1.7-1.6,1.4-2.6l0,0l-0.7-2.3c-0.3-1.1-1.6-1.7-2.6-1.4l0,0l-1.9,0.5
			c-0.7-1.1-1.5-2.3-2.4-3l0.9-1.7c0.3-0.4,0.3-1,0.2-1.6c-0.1-0.6-0.5-1.1-1-1.4l-2.1-1.1C184.6,285.7,183.3,286,182.6,287.1z
			 M186.8,300.1c0.4,1.3,0.5,2.5,0.3,3.9c-0.5,3.4-2.9,6.3-6.3,7.2c-4.7,1.4-9.6-1.4-10.9-6c-0.4-1.3-0.5-2.5-0.3-3.9
			c0.5-3.4,2.9-6.3,6.3-7.2C180.5,292.9,185.2,295.4,186.8,300.1L186.8,300.1z"/>
		<path id="_Compound_Path_3" class="st34" d="M118.6,235.4l-2.8,5.3c-3.9-1-8.1-1.4-12.2-1.3l-1.8-5.6c-1.1-3.6-4.9-5.6-8.3-4.6
			l-7.2,2c-3.6,1.1-5.6,4.9-4.6,8.3l1.6,5.7c-3.6,2.1-6.8,4.7-9.7,7.8l-5.3-2.8c-3.2-1.7-7.4-0.7-9.3,2.7l-3.6,6.6
			c-1.7,3.2-0.5,7.5,2.7,9.3l5.3,2.8c-1,3.9-1.4,8.1-1.3,12.2l-5.5,1.6c-3.6,1.1-5.6,4.9-4.6,8.3l2.4,7.3c1.1,3.6,4.9,5.6,8.3,4.6
			l5.7-1.6c2.1,3.6,4.7,6.8,7.8,9.7l-2.8,5.3c-1.7,3.2-0.5,7.5,2.7,9.3l6.6,3.6c1.5,0.8,3.5,1.1,5.2,0.5c1.7-0.6,3.1-1.6,4.1-3.3
			l2.8-5.3c3.9,1,8.1,1.4,12.2,1.3l1.6,5.7c1.1,3.6,4.9,5.6,8.3,4.6l7.2-2.2c3.6-1.1,5.6-4.9,4.6-8.3l-1.6-5.7
			c3.6-2.1,6.8-4.7,9.7-7.8l5.3,2.8c1.5,0.8,3.5,1.1,5.2,0.5c1.7-0.6,3.1-1.6,4.1-3.3l3.8-6.6c0.8-1.5,1.1-3.5,0.5-5.2
			c-0.6-1.7-1.6-3.1-3.3-4.1l-5.3-2.8c1-3.9,1.4-8.1,1.3-12.2l5.7-1.6c3.6-1.1,5.6-4.9,4.6-8.3l-2-7.2c-1.1-3.6-4.9-5.6-8.3-4.6
			l-5.7,1.6c-2.1-3.6-4.7-6.8-7.8-9.7l2.8-5.3c0.8-1.5,1.1-3.5,0.5-5.2c-0.6-1.7-1.6-3.1-3.3-4.1l-6.6-3.6c-3.4-1.9-7.6-0.9-9.5,2.3
			C118.8,235.4,118.8,235.4,118.6,235.4z M130.8,274.8c1.1,3.6,1.4,7.5,1,11.3c-2.1,14.6-15.5,24.6-30.1,22.5
			c-10.4-1.5-18.9-8.8-21.9-19c-1.1-3.6-1.4-7.5-0.8-11.3c2.1-14.6,15.5-24.6,30.1-22.5C119.5,257.3,128,264.8,130.8,274.8
			L130.8,274.8z"/>
	</g>
</g>
<g>
	<path class="st8" d="M547.4,252.1v108.7c0,3.5-2.8,6.3-6.3,6.3H377.4l0,0c-3.5,0-6.3-2.8-6.3-6.3V252.1l0,0H547.4L547.4,252.1z"/>
	<path class="st31" d="M541.6,227.6c3.2,0,5.8,2.6,5.8,5.8v19l0,0H371l0,0v-19l0,0c0-3.2,2.6-5.8,5.8-5.8L541.6,227.6L541.6,227.6z"
		/>
	<rect x="492.4" y="265.1" class="st36" width="41.4" height="41.4"/>
	<rect x="438.6" y="265.1" class="st36" width="41.4" height="41.4"/>
	<rect x="384.6" y="265.1" class="st36" width="41.4" height="41.4"/>
	<rect x="492.4" y="314.8" class="st36" width="41.4" height="41.4"/>
	<rect x="438.6" y="314.8" class="st36" width="41.4" height="41.4"/>
	<rect x="384.6" y="314.8" class="st36" width="41.4" height="41.4"/>
	<circle class="st20" cx="369.6" cy="234.2" r="42"/>
	<path class="st18" d="M343.6,234.2c0,1.8,1.4,3.2,3.2,3.2h19.6v19.7c0,1.8,1.4,3.2,3.2,3.2c1.8,0,3.2-1.4,3.2-3.2v-19.6h19.6
		c1.8,0,3.2-1.4,3.2-3.2s-1.4-3.2-3.2-3.2h-19.6v-19.6c0-1.8-1.4-3.2-3.2-3.2c-1.8,0-3.2,1.4-3.2,3.2v19.6h-19.6
		C345,231.1,343.6,232.5,343.6,234.2z"/>
</g>
<g>
	<path class="st8" d="M500.1,65.8v68.3c0,2.2-1.8,4-4,4H393.3l0,0c-2.2,0-4-1.8-4-4V65.8l0,0H500.1L500.1,65.8z"/>
	<path class="st42" d="M496.5,50.4c2,0,3.6,1.6,3.6,3.6V66l0,0H389.3l0,0V54.1l0,0c0-2,1.6-3.6,3.6-3.6L496.5,50.4L496.5,50.4z"/>
	<path class="st36" d="M400.8,74v54.7h87.9V74H400.8z M441.6,110.7V92.3l14.1,9L441.6,110.7z"/>
	<circle class="st24" cx="388.4" cy="54.6" r="26.4"/>
	<path class="st18" d="M372,54.6c0,1.1,0.9,2,2,2h12.3V69c0,1.1,0.9,2,2,2c1.1,0,2-0.9,2-2V56.6h12.3c1.1,0,2-0.9,2-2s-0.9-2-2-2
		h-12.3V40.3c0-1.1-0.9-2-2-2c-1.1,0-2,0.9-2,2v12.3H374C372.9,52.6,372,53.5,372,54.6z"/>
</g>
<g>
	<path class="st8" d="M90.3,181h129.2l0,0v62.8c0,2-2.1,3.6-4.6,3.6l0,0H95c-2.6,0-4.6-1.6-4.6-3.6V181L90.3,181z"/>
	<path class="st43" d="M94.6,163l120.8,0c2.3,0,4.3,1.9,4.3,4.3l0,0v13.9l0,0H90.3l0,0v-13.9C90.3,164.9,92.2,163,94.6,163L94.6,163
		z"/>
	<rect x="100.2" y="192" class="st36" width="109.5" height="30.6"/>
	<rect x="100.3" y="228.3" class="st36" width="30.3" height="9.2"/>
	<rect x="139.7" y="228.3" class="st36" width="30.3" height="9.2"/>
	<rect x="179.3" y="228.3" class="st36" width="30.3" height="9.2"/>
	<circle class="st19" cx="220.7" cy="167.9" r="30.8"/>
	<path class="st18" d="M237.4,165.6H223v-14.4c0-1.3-1-2.3-2.3-2.3s-2.3,1-2.3,2.3v14.4H204c-1.3,0-2.3,1-2.3,2.3s1,2.3,2.3,2.3
		h14.4v14.4c0,1.3,1,2.3,2.3,2.3s2.3-1,2.3-2.3v-14.4h14.4c1.3,0,2.3-1,2.3-2.3C239.7,166.6,238.7,165.6,237.4,165.6z"/>
</g>
</svg>
