<?xml version="1.0" encoding="utf-8"?>
<!-- Generator: Adobe Illustrator 22.0.1, SVG Export Plug-In . SVG Version: 6.00 Build 0)  -->
<svg version="1.1" id="Layer_1" xmlns="http://www.w3.org/2000/svg" xmlns:xlink="http://www.w3.org/1999/xlink" x="0px" y="0px"
	 viewBox="0 0 548 390.3" style="enable-background:new 0 0 548 390.3;" xml:space="preserve">
<style type="text/css">
	.st0{clip-path:url(#SVGID_2_);fill:#99CF8C;}
	.st1{clip-path:url(#SVGID_4_);fill:#71BE71;}
	.st2{clip-path:url(#SVGID_6_);fill:#ECEFF0;}
	.st3{clip-path:url(#SVGID_8_);fill:#D0D8DC;}
	.st4{clip-path:url(#SVGID_10_);fill:#CBEAFB;}
	.st5{clip-path:url(#SVGID_12_);fill:#B6D3E0;}
	.st6{clip-path:url(#SVGID_14_);fill:#CBEAFB;}
	.st7{clip-path:url(#SVGID_16_);}
	.st8{fill:#57A7DB;}
	.st9{clip-path:url(#SVGID_18_);fill:#FDD7AD;}
	.st10{clip-path:url(#SVGID_20_);fill:#F7C9A9;}
	.st11{clip-path:url(#SVGID_22_);fill:#79B9E2;}
	.st12{clip-path:url(#SVGID_24_);fill:#57A7DB;}
	.st13{clip-path:url(#SVGID_26_);fill:#FDD7AD;}
	.st14{clip-path:url(#SVGID_28_);fill:#F7C9A9;}
	.st15{clip-path:url(#SVGID_30_);fill:#F4AE7A;}
	.st16{clip-path:url(#SVGID_32_);fill:#ED975D;}
	.st17{fill:none;stroke:#D0D8DC;stroke-width:2;stroke-miterlimit:10;}
	.st18{fill:#D0D8DC;}
	.st19{fill:#A3D1EE;}
	.st20{fill:#FFFFFF;}
	.st21{fill:#F4AE7A;}
	.st22{fill:#71BE71;}
	.st23{fill:#E4F2FB;}
	.st24{fill:#546E7A;}
	.st25{fill:#CBEAFB;}
	.st26{fill:#FC6142;}
	.st27{fill:#81C784;}
	.st28{fill:#FCD156;}
	.st29{fill:#ECEFF0;}
	.st30{fill:none;stroke:#57A7DB;stroke-width:4;stroke-miterlimit:10;stroke-dasharray:2.933,4.8878;}
	.st31{fill:#FDD7AD;}
	.st32{fill:#99CF8C;}
	.st33{fill:#79B9E2;}
	.st34{fill:#F7C9A9;}
	.st35{fill:#EEEEEE;}
	.st36{fill:#BDDDF4;}
	.st37{fill:#95C8EC;}
	.st38{fill:none;stroke:#D0D8DC;stroke-width:3;stroke-miterlimit:10;}
	.st39{fill:#4F9BC6;}
	.st40{fill:#37474F;}
	.st41{fill:#B0BEC5;}
	.st42{fill:#90A4AE;}
	.st43{fill:#70B2E2;}
	.st44{fill:#FFFFFF;stroke:#FFFFFF;stroke-width:0.75;stroke-miterlimit:10;}
	.st45{fill:#FFFFFF;stroke:#FFFFFF;stroke-width:0.69;stroke-miterlimit:10;}
	.st46{fill:#E8E8E8;}
	.st47{fill:#F5F5F5;}
	.st48{fill:#C8E5C9;}
	.st49{fill:#ECF0F1;}
	.st50{fill:#95A5A5;}
	.st51{fill:#BDC3C7;}
	.st52{opacity:0.3;fill:#F1F2F2;enable-background:new    ;}
	.st53{fill:#71BE72;}
	.st54{fill:#57A0D7;}
	.st55{fill:#3D82C4;}
	.st56{opacity:0.71;}
	.st57{opacity:0.71;fill:#BDDDF4;enable-background:new    ;}
	.st58{fill:#FBE4D4;}
	.st59{fill:#58A6DA;}
	.st60{fill:none;stroke:#D0D8DC;stroke-width:4;stroke-miterlimit:10;stroke-dasharray:8,6;}
	.st61{fill:#F0FAFF;}
	.st62{opacity:0.64;}
	.st63{fill:none;stroke:#A3D1EE;stroke-width:4;stroke-miterlimit:10;stroke-dasharray:12.08,12.08;}
	.st64{fill:#F4C898;}
	.st65{fill:#F2A24C;}
	.st66{opacity:0.71;enable-background:new    ;}
</style>
<path class="st24" d="M240.4,390.3h-115c-8.4,0-15.2-6.8-15.2-15.2V121c0-8.4,6.8-15.2,15.2-15.2h115c8.4,0,15.2,6.8,15.2,15.2
	v254.2C255.6,383.5,248.8,390.3,240.4,390.3z"/>
<rect x="119.4" y="144.6" class="st20" width="127" height="198"/>
<path class="st20" d="M182.9,381.6L182.9,381.6c-8.3,0-15.1-6.8-15.1-15.1v-0.1c0-8.3,6.8-15.1,15.1-15.1h0
	c8.3,0,15.1,6.8,15.1,15.1v0.1C198,374.8,191.3,381.6,182.9,381.6z"/>
<path class="st24" d="M182.9,379.3L182.9,379.3c-7.1,0-12.8-5.7-12.8-12.8v-0.1c0-7.1,5.7-12.8,12.8-12.8h0
	c7.1,0,12.8,5.7,12.8,12.8v0.1C195.7,373.6,190,379.3,182.9,379.3z"/>
<path class="st20" d="M208.4,133.6h-39.5c-3.8,0-6.9-3.1-6.9-6.9v0c0-3.8,3.1-6.9,6.9-6.9h39.5c3.8,0,6.9,3.1,6.9,6.9v0
	C215.3,130.5,212.2,133.6,208.4,133.6z"/>
<g>
	<g id="XMLID_443_">
		<rect id="XMLID_185_" x="119.4" y="159.6" class="st23" width="127" height="177.5"/>
		<rect id="XMLID_316_" x="119.4" y="144.6" class="st18" width="127" height="15.1"/>
		<rect id="XMLID_315_" x="144.6" y="150" class="st29" width="96.6" height="5.3"/>
		<rect id="XMLID_318_" x="130.7" y="150" class="st35" width="7.1" height="5.3"/>
		<rect id="XMLID_332_" x="122.7" y="150" class="st35" width="7.1" height="5.3"/>
	</g>
	<rect id="XMLID_38_" x="119.4" y="337.1" class="st18" width="127" height="5.5"/>
	<rect id="XMLID_395_" x="126.6" y="166.4" class="st36" width="7.6" height="5.2"/>
	<rect id="XMLID_120_" x="126.6" y="175.1" class="st36" width="7.6" height="5.2"/>
	<rect id="XMLID_135_" x="126.6" y="183.7" class="st36" width="7.6" height="5.2"/>
	<rect id="XMLID_137_" x="126.6" y="192.4" class="st36" width="7.6" height="5.2"/>
	<rect id="XMLID_184_" x="126.6" y="201.1" class="st36" width="7.6" height="5.2"/>
	<rect id="XMLID_182_" x="126.6" y="209.8" class="st36" width="7.6" height="5.2"/>
	<rect id="XMLID_180_" x="126.6" y="218.4" class="st36" width="7.6" height="5.2"/>
	<rect id="XMLID_178_" x="126.6" y="227.2" class="st36" width="7.6" height="5.2"/>
	<rect id="XMLID_186_" x="126.6" y="235.7" class="st36" width="7.6" height="5.2"/>
	<rect id="XMLID_188_" x="126.6" y="244.5" class="st36" width="7.6" height="5.2"/>
	<rect id="XMLID_217_" x="136.2" y="166.4" class="st37" width="104.9" height="5.2"/>
	<rect id="XMLID_7_" x="126.6" y="270.3" class="st36" width="7.6" height="5.2"/>
	<rect id="XMLID_6_" x="136.2" y="270.3" class="st37" width="104.9" height="5.2"/>
	<rect id="XMLID_216_" x="136.2" y="175.1" class="st37" width="90.7" height="5.2"/>
	<rect id="XMLID_215_" x="136.2" y="183.7" class="st37" width="37.5" height="5.2"/>
	<rect id="XMLID_214_" x="136.2" y="192.4" class="st37" width="26.8" height="5.2"/>
	<rect id="XMLID_213_" x="136.2" y="201.1" class="st37" width="39.6" height="5.2"/>
	<rect id="XMLID_9_" x="126.6" y="279.4" class="st36" width="7.6" height="5.2"/>
	<rect id="XMLID_8_" x="136.2" y="279.4" class="st37" width="39.6" height="5.2"/>
	<rect id="XMLID_212_" x="136.2" y="209.8" class="st37" width="104.9" height="5.2"/>
	<rect id="XMLID_208_" x="136.2" y="218.4" class="st37" width="55.8" height="5.2"/>
	<rect id="XMLID_16_" x="126.6" y="306.2" class="st36" width="7.6" height="5.2"/>
	<rect id="XMLID_15_" x="136.2" y="306.2" class="st37" width="55.8" height="5.2"/>
	<rect id="XMLID_202_" x="136.2" y="227.2" class="st37" width="77.1" height="5.2"/>
	<rect id="XMLID_2_" x="126.6" y="253" class="st36" width="7.6" height="5.2"/>
	<rect id="XMLID_1_" x="136.2" y="253" class="st37" width="77.1" height="5.2"/>
	<rect id="XMLID_190_" x="136.2" y="235.7" class="st37" width="90.7" height="5.2"/>
	<rect id="XMLID_189_" x="136.2" y="244.5" class="st37" width="97.5" height="5.2"/>
	<rect id="XMLID_13_" x="126.6" y="288.3" class="st36" width="7.6" height="5.2"/>
	<rect id="XMLID_12_" x="126.6" y="297" class="st36" width="7.6" height="5.2"/>
	<rect id="XMLID_11_" x="136.2" y="288.3" class="st37" width="90.7" height="5.2"/>
	<rect id="XMLID_10_" x="136.2" y="297" class="st37" width="97.5" height="5.2"/>
	<rect id="XMLID_130_" x="175.9" y="183.7" class="st37" width="37.5" height="5.2"/>
	<rect id="XMLID_131_" x="165.3" y="192.4" class="st37" width="26.8" height="5.2"/>
	<rect id="XMLID_5_" x="126.6" y="261.9" class="st36" width="7.6" height="5.2"/>
	<rect id="XMLID_4_" x="136.2" y="261.9" class="st37" width="26.8" height="5.2"/>
	<rect id="XMLID_3_" x="165.3" y="261.9" class="st37" width="26.8" height="5.2"/>
	<rect id="XMLID_218_" x="195.7" y="192.4" class="st37" width="45.3" height="5.2"/>
	<g>
		<path class="st20" d="M215.4,327.7l-12.8-5.6v-1.6l12.8-6.4v2.5l-9.6,4.5l9.6,4V327.7z"/>
		<path class="st20" d="M226.8,311.4l-7.1,19h-2.9l7.1-19H226.8z"/>
		<path class="st20" d="M228.4,325l9.6-4l-9.6-4.5V314l12.8,6.4v1.6l-12.8,5.6V325z"/>
	</g>
</g>
<g>
	<circle class="st53" cx="131.9" cy="220.4" r="35.3"/>
	<g id="_Group__4_">
		<path id="_Path_2-2_1_" class="st54" d="M45.4,87.5L45.4,87.5c-6.8,4.3-8.8,13.3-4.3,20.1c0,0,0,0,0,0.1l34.3,53.1
			c4.3,6.8,13.3,8.8,20.1,4.4l0.1-0.1l0,0c6.8-4.3,8.8-13.3,4.4-20.1l-0.1-0.1L65.6,91.9c-4.2-6.8-13-8.8-19.8-4.7
			C45.7,87.3,45.6,87.4,45.4,87.5z"/>
		<path id="_Path_3-2_1_" class="st37" d="M44.4,93.7c-2.5,1.7-3.3,5.1-1.6,7.6c0,0,0,0,0,0.1L77,154.5c1.6,2.5,5.1,3.3,7.6,1.7
			l0.1-0.1c2.5-1.6,3.4-4.9,1.8-7.4c-0.1-0.1-0.1-0.2-0.2-0.3L52.1,95.3C50.7,92.7,47.1,92.1,44.4,93.7z"/>
		<g id="_Group_2_4_">
			<path id="_Path_4-2_1_" class="st55" d="M90.9,158.3c-3.4,2.2-4.3,6.8-2.1,10.1l0,0l7.2,10.8c2.2,3.4,6.8,4.3,10.1,2.1l0,0
				c3.4-2.2,4.3-6.8,2.1-10.1l-7.2-10.8C98.8,157,94.4,156,90.9,158.3z"/>
		</g>
		<path class="st8" d="M187.3,232.5c-6.7,30.8-37,50.3-67.8,43.7h-0.1c-30.8-6.8-50.3-37-43.9-67.9c3.2-14.9,12.2-27.9,25.1-36l0,0
			c12.7-8.2,28.1-11,42.9-7.7c14.8,3.2,27.8,12.2,35.9,24.9C187.6,202.2,190.3,217.7,187.3,232.5z M167.1,197.6
			c-12.6-19.7-38.8-25.5-58.5-12.9c-0.1,0-0.1,0.1-0.2,0.1l0,0c-9.5,6-16.3,15.6-18.6,26.7c-4.9,22.9,9.7,45.7,32.5,50.5
			c11,2.3,22.5,0.3,31.9-5.8C174,243.6,179.8,217.4,167.1,197.6L167.1,197.6z"/>
		<g id="_Group_3_2_" class="st56">
			<path id="_Path_5-2_1_" class="st57" d="M154.2,256.3c-19.7,12.7-46,7.1-58.7-12.7c-6.1-9.5-8.2-21-5.8-32
				c2.3-11.1,9.1-20.7,18.6-26.7l0,0c19.7-12.7,45.9-7.1,58.6,12.6c0,0.1,0.1,0.1,0.1,0.2c12.7,19.7,7.1,45.9-12.6,58.6
				C154.4,256.1,154.3,256.3,154.2,256.3z"/>
		</g>
		<path id="_Path_6_4_" class="st52" d="M167,197.6c6.1,9.4,8.2,20.9,5.8,31.9c-0.6,3.1-1.7,6.1-3.1,9c-3.1,4.1-6.9,7.6-11.2,10.5
			c-19.7,12.7-45.9,7-58.6-12.7c-6.1-9.5-8.2-21-5.8-32c0.6-3.1,1.7-6.1,3.1-9c3.1-4.1,6.9-7.6,11.2-10.5l0,0
			c19.6-12.7,45.7-7.1,58.4,12.5C166.9,197.4,167,197.5,167,197.6L167,197.6z"/>
	</g>
	<g id="_Group_4_1_">
		<g id="_Group_5_1_">
			<g id="_Group_6_1_">
				<g id="_Group_7_1_">
					<path id="_Path_7_4_" class="st58" d="M16,116.7c4.7,9.9,10.5,9.9,10.5,9.9c4.9,16.4,13,17.3,13,17.3
						c3.7,14.5,12.1,11.9,12.1,11.9c1.3,18.9,10.5,22.5,16.4,19.1c2.2-1.2,3.9-3.2,4.7-5.6c3.3-9.6,5.2-44.6,8.5-44.6
						c3.3,0,13.8,11.4,13.8,11.4s13-33.2,9.2-42.2s-33-48.3-33-48.3c-1.1-0.1-2.2-0.2-3.3-0.2c-10-0.8-41.1-3.3-44.2-1.8
						c-3.7,1.8-11.3,36.8-12.1,43.7C10.6,94.1,11.2,106.9,16,116.7z"/>
					<g id="_Group_8_1_">
						<polygon id="_Path_8_4_" class="st37" points="64.8,40 83.7,40 83.7,0.3 64.8,0.3 0.4,0.3 0.4,40 						"/>
						<polygon id="_Path_9_4_" class="st46" points="62.4,47.5 77.6,47.5 77.6,40 62.4,40 11.2,40 11.2,47.5 						"/>
					</g>
				</g>
			</g>
		</g>
		<polygon id="_Path_10_1_" class="st59" points="74.2,40 83.7,40 83.7,0.3 74.2,0.3 42,0.3 42,40 		"/>
	</g>
	<path class="st20" d="M127,230.3l-0.1-1.7c-0.4-3.5,0.7-7.4,4-11.3c3-3.5,4.5-6,4.5-9c0-3.4-2.1-5.6-6.2-5.6c-2.3,0-4.7,0.6-6.7,2
		l-1.6-4.1c2.1-1.6,5.9-2.6,9.4-2.6c7.5,0,10.9,4.7,10.9,9.6c0,4.4-2.5,7.6-5.6,11.4c-2.9,3.4-3.9,6.2-3.7,9.6l0.1,1.7L127,230.3z
		 M125.5,239.3c-0.2-2.1,1.5-4,3.6-4.2c2.1-0.2,4,1.5,4.2,3.6c0,0.2,0,0.4,0,0.5c0,2.1-1.8,3.9-3.9,3.9
		C127.3,243.1,125.7,241.6,125.5,239.3L125.5,239.3z"/>
</g>
<g>
	<g>
		<path class="st19" d="M532.3,350.9c-7.8,0-14.3,6.3-14.3,14.3s6.3,14.3,14.3,14.3s14.3-6.3,14.3-14.3
			C546.6,357.1,540.1,350.9,532.3,350.9z M529.2,373.8l-7.5-7.5l3-3l4.7,4.7l10-10l3,3L529.2,373.8z"/>
		<path class="st19" d="M488,371.6v-40.2h14.8v-14.8h28.1v32.5c0.4,0,1-0.1,1.4-0.1c0.8,0,1.7,0.1,2.5,0.3v-36.5h-34.6l-16.4,17.2
			v45.6h35.6c-1-1.2-1.8-2.5-2.3-3.9L488,371.6L488,371.6z M498.9,319.7v7.7h-7.3L498.9,319.7z"/>
		<rect x="492.5" y="342.3" class="st19" width="33.3" height="4.4"/>
		<path class="st19" d="M524,351.1h-31.5v4.4h26.5C520.5,353.9,522.1,352.3,524,351.1z"/>
		<path class="st19" d="M492.5,364.8h23.4c0-1.6,0.3-3.1,0.7-4.4h-24.1L492.5,364.8L492.5,364.8z"/>
	</g>
</g>
<g>
	<g>
		<path class="st19" d="M193.2,59.7V19.2h14.9V4.3h28.3v32.6c0.5,0,1.1,0,1.4,0c0.8,0,1.7,0.2,2.5,0.2V0.4h-34.8l-16.4,17.2v45.9
			h35.9c-1.1-1.2-1.9-2.5-2.3-3.9L193.2,59.7L193.2,59.7z M204.1,7.7v7.6h-7.3L204.1,7.7z"/>
		<rect x="198" y="30.4" class="st19" width="33.5" height="4.4"/>
		<path class="st19" d="M229.5,39.2H198v4.4h26.6C226,41.7,227.5,40.2,229.5,39.2z"/>
		<path class="st19" d="M198,52.7h23.6c0-1.5,0.3-3.1,0.6-4.4H198L198,52.7L198,52.7z"/>
		<g>
			<path class="st19" d="M237.8,38.9c-7.9,0-14.3,6.4-14.3,14.3s6.4,14.3,14.3,14.3s14.3-6.4,14.3-14.3S245.6,38.9,237.8,38.9z
				 M239,61.1c-0.3,0.3-0.8,0.5-1.5,0.5s-1.2-0.2-1.5-0.5c-0.3-0.3-0.5-0.8-0.5-1.5c0-0.6,0.2-1.2,0.5-1.5s0.8-0.5,1.5-0.5
				s1.2,0.2,1.5,0.5c0.3,0.3,0.5,0.8,0.5,1.5S239.3,60.8,239,61.1z M242.9,50.2c-0.3,0.6-1.2,1.4-2.2,2.2c-0.6,0.5-1.2,1.1-1.4,1.4
				c-0.2,0.3-0.3,0.6-0.3,1.2v0.6h-3.2v-0.8c0-0.6,0.2-1.4,0.5-2c0.3-0.5,0.8-1.2,1.7-1.9c0.8-0.5,1.4-1.1,1.7-1.5
				c0.3-0.3,0.3-0.8,0.3-1.2c0-0.5-0.2-0.8-0.5-1.2c-0.3-0.3-0.8-0.3-1.5-0.3c-1.2,0-2.5,0.3-4,1.2l-1.4-2.5
				c1.7-1.1,3.6-1.5,5.6-1.5c1.7,0,2.9,0.3,3.9,1.2s1.4,1.9,1.4,3.1C243.4,48.8,243.2,49.6,242.9,50.2z"/>
		</g>
	</g>
</g>
<g>
	<rect x="317.3" y="0.5" class="st25" width="211.5" height="234.7"/>
	<rect x="317.3" y="227.2" class="st24" width="211.5" height="11.8"/>
	<rect x="317.3" y="0.4" class="st24" width="211.5" height="17.8"/>
	<rect x="365.3" y="197.5" class="st20" width="14.2" height="3"/>
	<rect x="430.7" y="197.5" class="st27" width="14.2" height="3"/>
	<rect x="365.3" y="188.6" class="st20" width="59" height="3"/>
	<rect x="351.1" y="215.4" class="st21" width="7.5" height="3"/>
	<rect x="351.1" y="36.6" class="st21" width="8.8" height="3"/>
	<rect x="351.1" y="54.5" class="st27" width="10" height="3"/>
	<rect x="365.3" y="54.5" class="st20" width="28" height="3"/>
	<rect x="358.8" y="63.5" class="st20" width="15.2" height="3"/>
	<rect x="419.8" y="63.5" class="st20" width="15.2" height="3"/>
	<rect x="438.3" y="63.5" class="st8" width="15.2" height="3"/>
	<rect x="379.4" y="63.5" class="st20" width="35" height="3"/>
	<rect x="365.3" y="72.4" class="st8" width="20.3" height="3"/>
	<rect x="391.4" y="72.4" class="st20" width="43.7" height="3"/>
	<rect x="374.3" y="90.2" class="st27" width="12.7" height="3"/>
	<rect x="374.3" y="99.2" class="st21" width="12.7" height="3"/>
	<rect x="392.5" y="90.2" class="st20" width="38.9" height="3"/>
	<rect x="392.5" y="99.2" class="st20" width="54.1" height="3"/>
	<rect x="383.2" y="108.2" class="st8" width="12.9" height="3"/>
	<rect x="392.5" y="117.1" class="st20" width="86.5" height="3"/>
	<rect x="392.5" y="126.1" class="st20" width="28.6" height="3"/>
	<rect x="426.3" y="126.1" class="st8" width="12.8" height="3"/>
	<rect x="443.5" y="126.1" class="st20" width="12.8" height="3"/>
	<rect x="360.1" y="134.9" class="st21" width="8.8" height="3"/>
	<rect x="364" y="143.9" class="st8" width="21.9" height="3"/>
	<rect x="483.6" y="143.9" class="st8" width="15.4" height="3"/>
	<rect x="391" y="143.9" class="st20" width="86" height="3"/>
	<rect x="376.9" y="152.8" class="st20" width="73" height="3"/>
	<rect x="376.9" y="161.8" class="st20" width="88.2" height="3"/>
	<rect x="371.7" y="170.7" class="st8" width="10.3" height="3"/>
	<rect x="360.1" y="179.7" class="st8" width="15.4" height="3"/>
	<rect x="384.9" y="197.5" class="st20" width="39.4" height="3"/>
	<circle class="st26" cx="328.8" cy="9.2" r="3.4"/>
	<circle class="st27" cx="340.3" cy="9.2" r="3.4"/>
	<circle class="st28" cx="351.8" cy="9.2" r="3.4"/>
</g>
<line class="st63" x1="247.2" y1="33.9" x2="316.2" y2="33.9"/>
<line class="st63" x1="515.3" y1="243.2" x2="515.3" y2="314.4"/>
<g>
	<g>
		<g id="XMLID_2471_">
			<path id="XMLID_2480_" class="st54" d="M371.2,276.8L371.2,276.8c6.9-4.3,8.8-13.5,4.3-20.1l-34.1-52.9
				c-4.3-6.9-13.3-8.7-20.1-4.3l0,0c-6.9,4.3-8.7,13.3-4.3,20.1l34.1,52.9C355.4,279.3,364.4,281.2,371.2,276.8L371.2,276.8z"/>
			<path id="XMLID_2479_" class="st37" d="M372.2,270.6c2.5-1.6,3.4-5.2,1.6-7.7L339.7,210c-1.6-2.5-5.2-3.4-7.7-1.6
				c-2.7,1.6-3.4,5.2-1.6,7.7l34.1,52.9C366,271.6,369.6,272.2,372.2,270.6L372.2,270.6z"/>
			<g id="XMLID_2477_">
				<path id="XMLID_2478_" class="st55" d="M325.9,206.2c3.4-2.1,4.3-6.7,2.1-10l-7.2-10.8c-2.1-3.4-6.7-4.3-10-2.1l0,0
					c-3.4,2.1-4.3,6.7-2.1,10l7.2,10.8C318,207.5,322.4,208.5,325.9,206.2L325.9,206.2z"/>
			</g>
			<path class="st55" d="M229.8,132.1c3.3-14.9,12.1-27.7,24.8-35.7c12.8-8.2,28-11,42.8-7.7c30.8,6.7,50.1,37,43.7,67.5
				c-3.3,14.9-12.1,27.7-24.9,35.9l0,0c-12.8,8.2-27.9,11-42.8,7.7s-27.5-12.1-35.7-24.8C229.5,162.2,226.9,146.9,229.8,132.1z
				 M250,167c6.1,9.5,15.6,16,26.6,18.5c11,2.3,22.3,0.3,31.8-5.7l0,0c9.5-6.1,16.2-15.6,18.5-26.6c4.9-22.8-9.7-45.5-32.3-50.3
				c-11-2.3-22.3-0.3-31.8,5.7c-9.5,6.1-16.2,15.6-18.5,26.6C241.8,146.2,243.9,157.5,250,167z"/>
			<g id="XMLID_2473_" class="st66">
				<g>
					<path id="XMLID_2474_" class="st57" d="M262.8,108.7c9.5-6.1,20.8-8.1,31.8-5.7c22.8,4.9,37.4,27.5,32.3,50.3
						c-2.3,11.1-9,20.5-18.5,26.6l0,0c-9.5,6.1-20.8,8.1-31.8,5.7c-11-2.3-20.5-9-26.6-18.5c-6.1-9.5-8.2-20.8-5.7-31.8
						C246.7,124.1,253.3,114.7,262.8,108.7L262.8,108.7z"/>
				</g>
			</g>
			<path id="XMLID_2472_" class="st23" d="M250,167c-6.1-9.5-8.2-20.8-5.7-31.8c0.7-3.1,1.6-6.1,3.1-9c3.1-4.1,6.9-7.5,11.1-10.5
				c9.5-6.1,20.8-8.1,31.8-5.7c22.8,4.9,37.4,27.5,32.3,50.3c-0.7,3.1-1.6,6.1-3.1,9c-3.1,4.1-6.9,7.5-11.1,10.5l0,0
				c-9.5,6.1-20.8,8.1-31.8,5.7C265.7,183.2,256.2,176.6,250,167z"/>
		</g>
		<g id="XMLID_2460_">
			<g id="XMLID_2463_">
				<g id="XMLID_2464_">
					<g id="XMLID_2465_">
						<path id="XMLID_2470_" class="st64" d="M400.7,247.6c-4.7-9.9-10.5-9.9-10.5-9.9c-4.9-16.4-12.9-17.2-12.9-17.2
							c-3.8-14.4-12.1-11.8-12.1-11.8c-1.3-18.9-10.5-22.5-16.4-19c-2.1,1.1-3.8,3.1-4.7,5.6c-3.3,9.5-5.2,44.4-8.5,44.4
							c-3.3,0-13.8-11.3-13.8-11.3s-12.9,33.1-9.2,42.1c3.8,9,32.9,48.2,32.9,48.2s1.3,0.2,3.3,0.2c10,1,41,3.3,44.1,1.8
							c3.8-1.8,11.3-36.7,12.1-43.6C406,270.3,405.3,257.5,400.7,247.6z"/>
						<g id="XMLID_2466_">
							<polygon id="XMLID_2468_" class="st37" points="351.9,321.3 333.1,321.3 333.1,389.3 351.9,389.3 416.1,389.3 416.1,321.3 
															"/>
							<polygon id="XMLID_2467_" class="st46" points="354.3,316.6 339.3,316.6 339.3,321.3 354.3,321.3 405.3,321.3 405.3,316.6 
															"/>
						</g>
					</g>
				</g>
			</g>
			<polygon id="XMLID_2461_" class="st59" points="342.6,321.3 333.1,321.3 333.1,389.3 342.6,389.3 374.7,389.3 374.7,321.3 			"/>
		</g>
	</g>
	<g>
		<g>
			<g>
				<path class="st27" d="M270.1,121.8c0.3,0,7.2,1.5,8.7,9.2c-1.8,2-3.1,4.9-3.1,7.9l0,0h19.6l0,0c0-3.1-1.3-5.9-3.1-7.9
					c1.5-7.7,8.5-9.2,8.7-9.2c0.7-0.2,1.1-0.7,1-1.5c-0.2-0.7-0.7-1.1-1.5-1c0,0-8.1,1.6-10.3,9.9c-1.5-1-3.1-1.3-4.7-1.3
					c-1.8,0-3.4,0.5-4.7,1.3c-2.3-8.2-10.3-9.9-10.3-9.9c-0.7-0.2-1.3,0.3-1.5,1C269.1,121,269.5,121.6,270.1,121.8z"/>
				<path class="st27" d="M307.8,131.3c-1-0.2-1.8,0.2-2,1.1c0,0-2,6.3-2.3,7.5c-1,0.2-3.4,1-5.2,1.5c0-0.3-0.2-0.5-0.2-1h-24.8
					c0,0.3-0.2,0.5-0.2,1c-1.8-0.5-4.3-1.3-5.2-1.5c-0.3-1.5-2.3-7.5-2.3-7.5c-0.2-1-1.1-1.3-2-1.1c-1,0.2-1.3,1.1-1.1,2l2.9,9.3
					l7.2,2c0,0.7,0,1.5,0,2c0,1,0,1.6,0.2,2.5l-7.2,3.3l-2.3,12.8c-0.2,1,0.3,1.6,1.3,1.8c1,0.2,1.6-0.3,1.8-1.3c0,0,1.8-9.7,2-11.1
					c0.7-0.3,3.1-1.5,5.1-2.1c1.8,7.4,6.7,12.6,12.4,12.6s10.8-5.2,12.4-12.6c2,1,4.3,2,5.1,2.1c0.2,1.5,2,11.1,2,11.1
					c0.2,1,1,1.5,1.8,1.3c1-0.2,1.5-1,1.3-1.8l-2.3-12.8l-7.2-3.3c0-1,0.2-1.6,0.2-2.5c0-0.7,0-1.5,0-2l7.2-2l2.9-9.3
					C309,132.6,308.6,131.6,307.8,131.3z"/>
			</g>
		</g>
	</g>
</g>
</svg>
