<?xml version="1.0" encoding="utf-8"?>
<!-- Generator: Adobe Illustrator 22.0.1, SVG Export Plug-In . SVG Version: 6.00 Build 0)  -->
<svg version="1.1" id="Layer_1" xmlns="http://www.w3.org/2000/svg" xmlns:xlink="http://www.w3.org/1999/xlink" x="0px" y="0px"
	 viewBox="0 0 548 390.3" style="enable-background:new 0 0 548 390.3;" xml:space="preserve">
<style type="text/css">
	.st0{clip-path:url(#SVGID_2_);fill:#99CF8C;}
	.st1{clip-path:url(#SVGID_4_);fill:#71BE71;}
	.st2{clip-path:url(#SVGID_6_);fill:#ECEFF0;}
	.st3{clip-path:url(#SVGID_8_);fill:#D0D8DC;}
	.st4{clip-path:url(#SVGID_10_);fill:#CBEAFB;}
	.st5{clip-path:url(#SVGID_12_);fill:#B6D3E0;}
	.st6{clip-path:url(#SVGID_14_);fill:#CBEAFB;}
	.st7{clip-path:url(#SVGID_16_);}
	.st8{fill:#57A7DB;}
	.st9{clip-path:url(#SVGID_18_);fill:#FDD7AD;}
	.st10{clip-path:url(#SVGID_20_);fill:#F7C9A9;}
	.st11{clip-path:url(#SVGID_22_);fill:#79B9E2;}
	.st12{clip-path:url(#SVGID_24_);fill:#57A7DB;}
	.st13{clip-path:url(#SVGID_26_);fill:#FDD7AD;}
	.st14{clip-path:url(#SVGID_28_);fill:#F7C9A9;}
	.st15{clip-path:url(#SVGID_30_);fill:#F4AE7A;}
	.st16{clip-path:url(#SVGID_32_);fill:#ED975D;}
	.st17{fill:#546E7A;}
	.st18{fill:#FFFFFF;}
	.st19{fill:#CBEAFB;}
	.st20{fill:#FC6142;}
	.st21{fill:#81C784;}
	.st22{fill:#FCD156;}
	.st23{fill:#D0D8DC;}
	.st24{fill:#71BE71;}
	.st25{fill:#90A4AE;}
	.st26{fill:#ECEFF0;}
	.st27{fill:#F4AE7A;}
	.st28{fill:none;stroke:#57A7DB;stroke-width:4;stroke-miterlimit:10;stroke-dasharray:2.933,4.8878;}
	.st29{fill:#FDD7AD;}
	.st30{fill:#99CF8C;}
	.st31{fill:#79B9E2;}
	.st32{fill:#F7C9A9;}
</style>
<g>
	<g>
		<defs>
			<rect id="SVGID_1_" x="321.7" y="31" width="138.6" height="128.8"/>
		</defs>
		<clipPath id="SVGID_2_">
			<use xlink:href="#SVGID_1_"  style="overflow:visible;"/>
		</clipPath>
		<path class="st0" d="M412,113.2l-53.2-1.8l-91.4-3.1c0.3-3.4,0.8-6.7,1.5-9.9c0.4-2,0.9-4.1,1.5-6l88.6-3l53.2-1.8v25.7H412z"/>
	</g>
	<g>
		<defs>
			<rect id="SVGID_3_" x="321.7" y="31" width="138.6" height="128.8"/>
		</defs>
		<clipPath id="SVGID_4_">
			<use xlink:href="#SVGID_3_"  style="overflow:visible;"/>
		</clipPath>
		<path class="st1" d="M268.9,98.3c0.4-2,0.9-4.1,1.5-6l88.6-3l53.2-1.8v9.7l-53.2,0.4L268.9,98.3z"/>
	</g>
	<g>
		<defs>
			<rect id="SVGID_5_" x="321.7" y="31" width="138.6" height="128.8"/>
		</defs>
		<clipPath id="SVGID_6_">
			<use xlink:href="#SVGID_5_"  style="overflow:visible;"/>
		</clipPath>
		<path class="st2" d="M412,113.2l-53.2-1.8V89.3l53.2-1.8V113.2z"/>
	</g>
	<g>
		<defs>
			<rect id="SVGID_7_" x="321.7" y="31" width="138.6" height="128.8"/>
		</defs>
		<clipPath id="SVGID_8_">
			<use xlink:href="#SVGID_7_"  style="overflow:visible;"/>
		</clipPath>
		<path class="st3" d="M358.8,97.6v-8.4l53.2-1.8v9.7L358.8,97.6z"/>
	</g>
	<g>
		<defs>
			<rect id="SVGID_9_" x="321.7" y="31" width="138.6" height="128.8"/>
		</defs>
		<clipPath id="SVGID_10_">
			<use xlink:href="#SVGID_9_"  style="overflow:visible;"/>
		</clipPath>
		<path class="st4" d="M429,159.7H276.7c-3.6-7.3-6.1-15-7.8-23.1c-0.7-3.2-1.1-6.7-1.5-10.1H429l17.9,9.4l10.5,5.5l3,1.6l-4.1,2.1
			l-9.4,5L429,159.7z"/>
	</g>
	<g>
		<defs>
			<rect id="SVGID_11_" x="321.7" y="31" width="138.6" height="128.8"/>
		</defs>
		<clipPath id="SVGID_12_">
			<use xlink:href="#SVGID_11_"  style="overflow:visible;"/>
		</clipPath>
		<path class="st5" d="M460.3,143.1l-3.4-0.6l-32.2-5.9h-156c-0.7-3.2-1.1-6.7-1.5-10.1H429l17.9,9.4l10.5,5.5L460.3,143.1z"/>
	</g>
	<g>
		<defs>
			<rect id="SVGID_13_" x="321.7" y="31" width="138.6" height="128.8"/>
		</defs>
		<clipPath id="SVGID_14_">
			<use xlink:href="#SVGID_13_"  style="overflow:visible;"/>
		</clipPath>
		<path class="st6" d="M460.3,71.7h-182c0.3-0.7,0.8-1.3,1.1-2c1.8-3,3.7-6,5.7-8.9c9.1-12.5,21-22.8,34.9-29.8h140.3V71.7z"/>
	</g>
	<g>
		<defs>
			<rect id="SVGID_15_" x="321.7" y="31" width="138.6" height="128.8"/>
		</defs>
		<clipPath id="SVGID_16_">
			<use xlink:href="#SVGID_15_"  style="overflow:visible;"/>
		</clipPath>
		<g class="st7">
			<path class="st8" d="M449.8,54.7v16.8h-5.7V54.7H449.8z"/>
			<path class="st8" d="M431.5,54.7v16.8h-5.7V54.7H431.5z"/>
			<path class="st8" d="M413.3,54.7v16.8h-5.7V54.7H413.3z"/>
			<path class="st8" d="M394.9,54.7v16.8h-5.7V54.7H394.9z"/>
			<path class="st8" d="M376.6,54.7v16.8h-5.7V54.7H376.6z"/>
			<path class="st8" d="M358.4,54.7v16.8h-5.7V54.7H358.4z"/>
			<path class="st8" d="M340.1,54.7v16.8h-5.7V54.7H340.1z"/>
			<path class="st8" d="M321.7,54.7v16.8H316V54.7H321.7z"/>
			<path class="st8" d="M303.5,54.7v16.8h-5.7V54.7H303.5z"/>
			<path class="st8" d="M285.2,71.5h-5.7v-1.8c1.8-3,3.7-6,5.7-8.9V71.5z"/>
		</g>
	</g>
	<g>
		<defs>
			<rect id="SVGID_17_" x="321.7" y="31" width="138.6" height="128.8"/>
		</defs>
		<clipPath id="SVGID_18_">
			<use xlink:href="#SVGID_17_"  style="overflow:visible;"/>
		</clipPath>
		<path class="st9" d="M424.1,117.1c-0.4,0-0.9,0-1.3,0c-21.2-0.6-21.2-32.6,0-33.2c0.4,0,0.9,0,1.3,0c6.6,0,12.9,1.3,18.6,3.8
			c6.8,2.9,12.9,7.4,17.7,12.9C451.6,110.7,438.6,117.1,424.1,117.1z"/>
	</g>
	<g>
		<defs>
			<rect id="SVGID_19_" x="321.7" y="31" width="138.6" height="128.8"/>
		</defs>
		<clipPath id="SVGID_20_">
			<use xlink:href="#SVGID_19_"  style="overflow:visible;"/>
		</clipPath>
		<path class="st10" d="M406.8,100.6c0-8.2,5.4-16.3,16-16.7c0.4,0,0.9,0,1.3,0c6.6,0,12.9,1.3,18.6,3.8c6.8,2.9,12.9,7.4,17.7,12.9
			c-4.8-1.6-10.8-2.8-17.7-3.7c-5.7-0.7-12-1.1-18.6-1.1c-0.4,0-0.9,0-1.3,0C412.1,95.9,406.8,98.2,406.8,100.6z"/>
	</g>
	<g>
		<defs>
			<rect id="SVGID_21_" x="321.7" y="31" width="138.6" height="128.8"/>
		</defs>
		<clipPath id="SVGID_22_">
			<use xlink:href="#SVGID_21_"  style="overflow:visible;"/>
		</clipPath>
		<path class="st11" d="M424.1,117.1c-5.8-13,13.2-15.1,7.4-21c-0.1-0.1-0.1-0.1-0.2-0.2c-5.6-5.8,0.3-11.5,11.4-8.3
			c6.8,2.9,12.9,7.4,17.7,12.9C451.6,110.7,438.6,117.1,424.1,117.1z"/>
	</g>
	<g>
		<defs>
			<rect id="SVGID_23_" x="321.7" y="31" width="138.6" height="128.8"/>
		</defs>
		<clipPath id="SVGID_24_">
			<use xlink:href="#SVGID_23_"  style="overflow:visible;"/>
		</clipPath>
		<path class="st12" d="M460.3,100.6c-4.8-1.6-10.8-2.8-17.7-3.7c-3.6-0.4-7.5-0.8-11.4-0.9c-5.6-5.8,0.3-11.5,11.4-8.3
			C449.6,90.5,455.5,95,460.3,100.6z"/>
	</g>
	<g>
		<defs>
			<rect id="SVGID_25_" x="321.7" y="31" width="138.6" height="128.8"/>
		</defs>
		<clipPath id="SVGID_26_">
			<use xlink:href="#SVGID_25_"  style="overflow:visible;"/>
		</clipPath>
		<path class="st13" d="M428.9,159.9c-2.6-4.9-4.1-10.6-4.1-16.5c0-2.2,0.2-4.4,0.6-6.4c0.7-3.6,1.9-7,3.6-10.2l31.4,16.5l0,0
			L428.9,159.9z"/>
	</g>
	<g>
		<defs>
			<rect id="SVGID_27_" x="321.7" y="31" width="138.6" height="128.8"/>
		</defs>
		<clipPath id="SVGID_28_">
			<use xlink:href="#SVGID_27_"  style="overflow:visible;"/>
		</clipPath>
		<path class="st14" d="M460.3,143.4l-35-6.4c0.7-3.6,1.9-7,3.6-10.2L460.3,143.4L460.3,143.4z"/>
	</g>
	<g>
		<defs>
			<rect id="SVGID_29_" x="321.7" y="31" width="138.6" height="128.8"/>
		</defs>
		<clipPath id="SVGID_30_">
			<use xlink:href="#SVGID_29_"  style="overflow:visible;"/>
		</clipPath>
		<path class="st15" d="M446.8,150.5c-1.1-2.1-1.8-4.6-1.8-7.2c0-0.9,0.1-1.9,0.2-2.8c0.3-1.6,0.8-3,1.6-4.4l13.5,7.2L446.8,150.5z"
			/>
	</g>
	<g>
		<defs>
			<rect id="SVGID_31_" x="321.7" y="31" width="138.6" height="128.8"/>
		</defs>
		<clipPath id="SVGID_32_">
			<use xlink:href="#SVGID_31_"  style="overflow:visible;"/>
		</clipPath>
		<path class="st16" d="M460.3,143.4l-15.1-2.8c0.3-1.6,0.8-3,1.6-4.4L460.3,143.4z"/>
	</g>
</g>
<path class="st17" d="M306.2,386.1H155.8c-11,0-19.9-8.9-19.9-19.9V33.9c0-11,8.9-19.9,19.9-19.9h150.4c11,0,19.9,8.9,19.9,19.9
	v332.4C326.1,377.2,317.2,386.1,306.2,386.1z"/>
<rect x="148" y="64.8" class="st18" width="166" height="258.9"/>
<path class="st18" d="M231,374.7L231,374.7c-10.9,0-19.8-8.8-19.8-19.8v-0.1c0-10.9,8.8-19.8,19.8-19.8h0c10.9,0,19.8,8.8,19.8,19.8
	v0.1C250.8,365.9,241.9,374.7,231,374.7z"/>
<path class="st17" d="M231,371.8L231,371.8c-9.3,0-16.8-7.5-16.8-16.8v-0.1c0-9.3,7.5-16.8,16.8-16.8h0c9.3,0,16.8,7.5,16.8,16.8
	v0.1C247.8,364.2,240.3,371.8,231,371.8z"/>
<path class="st18" d="M255,47.8h-47.9c-4.6,0-8.4-3.8-8.4-8.4v0c0-4.6,3.8-8.4,8.4-8.4H255c4.6,0,8.4,3.8,8.4,8.4v0
	C263.4,44.1,259.6,47.8,255,47.8z"/>
<rect x="148" y="64.8" class="st19" width="166" height="258.9"/>
<path class="st8" d="M314.8,64.8H148v34.9h166.8V64.8C314.8,64.8,314.8,64.8,314.8,64.8z"/>
<path class="st18" d="M397.1,274.6h-32.6c-4.2,0-7.7-3.5-7.7-7.7v-32.6c0-4.2,3.5-7.7,7.7-7.7h32.6c4.2,0,7.7,3.5,7.7,7.7v32.6
	C404.9,271.1,401.5,274.6,397.1,274.6z"/>
<g>
	<circle class="st20" cx="165.6" cy="82.2" r="4.8"/>
	<circle class="st21" cx="182.3" cy="82.2" r="4.8"/>
	<circle class="st22" cx="198.9" cy="82.2" r="4.8"/>
</g>
<g>
	<path class="st23" d="M17.1,1.5h135.4v46.3H17.1L17.1,1.5L17.1,1.5z"/>
	<g>
		<path class="st24" d="M31.7,8.6h52.6v3.6H31.7V8.6z"/>
		<path class="st25" d="M31.7,17.7h96.8v3.6H31.7V17.7z"/>
		<path class="st25" d="M31.7,27.4h96.8V31H31.7V27.4z"/>
		<path class="st25" d="M31.7,37.1h73.7v3.6H31.7V37.1z"/>
	</g>
</g>
<g>
	<path class="st26" d="M51.8,24.1h123.3v47.5H51.8V24.1z"/>
	<g>
		<path class="st27" d="M68.1,34.3h49.3v5H68.1V34.3z"/>
		<path class="st23" d="M68.1,45.2h90.7v5H68.1V45.2z"/>
		<path class="st23" d="M68.1,56.4h62.8v5H68.1V56.4z"/>
	</g>
</g>
<polyline class="st28" points="223,169.5 250.8,169.5 250.8,248.7 250.8,303.6 291.2,303.6 508.1,303.6 508.1,236 "/>
<polyline class="st28" points="250.8,186.9 524,186.9 524,115.4 "/>
<path class="st8" d="M531.6,270.6h-46.9c-6.1,0-11.2-5-11.2-11.2v-46.9c0-6.1,5-11.2,11.2-11.2h46.9c6.1,0,11.2,5,11.2,11.2v46.9
	C542.6,265.6,537.7,270.6,531.6,270.6z"/>
<path class="st24" d="M540.3,122.7h-32.6c-4.2,0-7.7-3.5-7.7-7.7V82.4c0-4.2,3.5-7.7,7.7-7.7h32.6c4.2,0,7.7,3.5,7.7,7.7V115
	C548.1,119.3,544.6,122.7,540.3,122.7z"/>
<path class="st27" d="M267.1,292.9h-32.6c-4.2,0-7.7-3.5-7.7-7.7v-32.6c0-4.2,3.5-7.7,7.7-7.7h32.6c4.2,0,7.7,3.5,7.7,7.7v32.6
	C274.8,289.5,271.4,292.9,267.1,292.9z"/>
<g>
	<circle class="st26" cx="363.7" cy="302.6" r="60.9"/>
	<g>
		<path class="st29" d="M384.7,293.6c0,11.1-8.9,20-20,20s-20-8.9-20-20s8.9-20,20-20S384.7,282.5,384.7,293.6z"/>
		<path class="st8" d="M364.7,313.6c-16.5,0-30.1,13.4-30.1,30.1v12c18.6,10.7,41.5,10.7,60,0v-12
			C394.7,327,381.2,313.6,364.7,313.6z"/>
		<path class="st30" d="M444.7,298.6h-15.3c-2.5-32-27.8-57.3-59.8-59.8v-15.3h-10.1v15.3c-32,2.5-57.3,27.8-59.8,59.8h-15.3v10.1
			h15.3c2.3,32,27.8,57.4,59.8,59.8v15.2h10.1v-15.2c32-2.3,57.4-27.8,59.8-59.8h15.3V298.6z M401.3,344.7
			c-8.8,7.9-19.9,12.7-31.7,13.7v-9.8h-10.1v9.8c-26.5-2.3-47.4-23.4-49.7-49.8h9.7v-10.1h-9.7c2.5-26.4,23.4-47.4,49.8-49.8v9.7
			h10.1v-9.7c26.4,2.5,47.4,23.4,49.8,49.8h-9.7v10.1h9.7C418.2,322.4,411.7,335.4,401.3,344.7L401.3,344.7z"/>
	</g>
</g>
<g>
	<path class="st8" d="M174.8,181.2c5.5,11.6,18.2,17.8,30.7,15c12.5-2.8,21.3-13.9,21.3-26.7c0-12.9-8.8-23.9-21.3-26.7
		c-12.5-2.8-25.3,3.5-30.7,15V181.2z"/>
	<path class="st31" d="M166.1,138.2c0-1.1,0.4-2.1,1.2-2.9c17.2-16.2,43.8-17.1,62-2c1.1,0.9,1.7,2.3,1.5,3.7
		c-0.2,1.5-1.2,2.6-2.6,3c-1.3,0.4-2.8,0.2-3.9-0.7c-15.2-12.6-37.3-11.8-51.7,1.7c-1.1,1.1-2.8,1.3-4.2,0.8
		C167.1,141.2,166.1,139.7,166.1,138.2z"/>
	<path class="st31" d="M176,207.8c0-1.3,0.7-2.6,1.9-3.4c1.1-0.7,2.6-0.8,3.8-0.1c13.9,7.2,30.6,5.3,42.7-4.7
		c1.1-0.9,2.6-1.2,3.9-0.7c1.3,0.4,2.3,1.7,2.6,3c0.2,1.5-0.3,2.8-1.5,3.7c-14.4,12-34.5,14.2-51.2,5.6
		C176.9,210.6,176,209.3,176,207.8z"/>
	<path class="st29" d="M120.6,251.6H58.7c0,0-21.1,0-33.3-13.3c-1.5-1.6-3.5-2.3-5.6-2.3h-12c-4.4,0-7.8-3.5-7.8-7.8v-62.6
		c0-4.4,3.5-7.8,7.8-7.8h1.5c6.3,0,12.3-2.6,16.7-7c7.4-7.6,20.1-19.2,32.7-24.3c19.6-7.8,46.9-23.5,54.8-31.3s15.6,0,15.6,7.8
		s-15.6,23.5-27.4,31.3c-3.8,2.5-7.3,5.4-10.4,8.7c-1.8,1.9-2.5,4.7-1.8,7.3c0.7,2.6,2.6,4.6,5.1,5.5c4.8,1.5,9.8,2.2,14.9,2.1h90
		c4.9,0,9.4,3.1,11.1,7.8c0.4,1.2,0.7,2.6,0.7,3.9c0,6.5-5.3,11.7-11.7,11.7h-46.9c5,0,9.4,3.1,11.1,7.8c0.4,1.2,0.7,2.6,0.7,3.9
		c0,6.5-5.3,11.7-11.7,11.7h-11.7c3.1,0,6.1,1.2,8.3,3.5c1.2,1.2,2.2,2.7,2.8,4.4c0.4,1.2,0.7,2.6,0.7,3.9c0,6.5-5.3,11.7-11.7,11.7
		h-19.6c3.1,0,6.1,1.2,8.3,3.5c1.2,1.2,2.2,2.7,2.8,4.4c0.6,1.6,0.8,3.1,0.7,4.8C132.3,247,127,251.7,120.6,251.6z"/>
	<g>
		<path class="st32" d="M211.2,169.5c0-1.3-0.2-2.7-0.7-3.9c-1.7-4.7-6-7.8-11.1-7.8h-90c-5,0.1-10.1-0.6-14.9-2.1
			c-1.8-0.7-3.4-1.9-4.4-3.5c-1.2,2-1.5,4.5-0.6,6.7c0.8,2.2,2.7,3.9,4.9,4.7c4.8,1.5,9.8,2.2,14.9,2.1h90c4.9,0,9.4,3.1,11.1,7.8
			C211,172.2,211.2,170.8,211.2,169.5z"/>
		<path class="st32" d="M163.6,189c-1.7-4.7-6-7.8-11.1-7.8h-35.2c-2.1,0-3.9,1.8-3.9,3.9c0,2.1,1.8,3.9,3.9,3.9h35.2
			c5,0,9.4,3.1,11.1,7.8C164.5,194.3,164.5,191.6,163.6,189z"/>
		<path class="st32" d="M151.9,212.5c-0.6-1.7-1.5-3.1-2.8-4.4c-2.2-2.2-5.1-3.5-8.3-3.5h-23.5c-2.1,0-3.9,1.8-3.9,3.9
			s1.8,3.9,3.9,3.9h23.5c4.9,0,9.4,3.1,11.1,7.8C152.8,217.9,152.8,215.1,151.9,212.5z"/>
		<path class="st32" d="M133,239.9c0-1.3-0.2-2.7-0.7-3.9c-0.6-1.7-1.5-3.1-2.8-4.4c-2.2-2.2-5.1-3.5-8.3-3.5h-7.8
			c-2.1,0-3.9,1.8-3.9,3.9c0,2.1,1.8,3.9,3.9,3.9h7.8c4.9,0,9.4,3.1,11.1,7.8C132.8,242.6,133,241.2,133,239.9z"/>
	</g>
</g>
</svg>
