<svg height="512" viewBox="0 0 64 64" width="512" xmlns="http://www.w3.org/2000/svg"><g id="Icons"><g><g><path d="m54.623 29.559-4.623 2.774-7.146-4.287c-2.994-1.797-4.854-5.083-4.854-8.575v-3.852c-1.766-1.024-3.812-1.619-6-1.619-6.627 0-12 5.373-12 12v2h-5c-6.075 0-11 4.925-11 11 0 5.738 4.394 10.444 10 10.95v-2.95c0-1.654 1.346-3 3-3h30c1.654 0 3 1.346 3 3v2.95c5.606-.506 10-5.212 10-10.95 0-4.018-2.161-7.522-5.377-9.441z" fill="#f0f0f0"/></g><g><path d="m24 26c0-5.944 4.327-10.866 10-11.82-.652-.11-1.317-.18-2-.18-6.627 0-12 5.373-12 12v2h4z" fill="#d2d2d2"/></g><g><path d="m14 48.791c-3.56-1.82-6-5.518-6-9.791 0-6.075 4.925-11 11-11h-4c-6.075 0-11 4.925-11 11 0 5.738 4.394 10.444 10 10.95z" fill="#d2d2d2"/></g><g><path d="m40 6h4.111c1.242 0 2.467-.289 3.578-.845l2.311-1.155 2.311 1.155c1.111.556 2.336.845 3.578.845h4.111v13.47c0 2.81-1.474 5.414-3.884 6.86l-6.116 3.67-6.116-3.67c-2.41-1.445-3.884-4.049-3.884-6.86z" fill="#3cc8b4"/></g><g><path d="m45.884 26.33c-2.41-1.445-3.884-4.049-3.884-6.86v-13.47h-2v13.47c0 2.81 1.474 5.414 3.884 6.86l6.116 3.67 1-.6z" fill="#1eaa96"/></g><g><path d="m54 24h-8c-1.105 0-2-.895-2-2v-6c0-1.105.895-2 2-2h8c1.105 0 2 .895 2 2v6c0 1.105-.895 2-2 2z" fill="#fab400"/></g><g><path d="m46 22v-6c0-1.105.895-2 2-2h-2c-1.105 0-2 .895-2 2v6c0 1.105.895 2 2 2h2c-1.105 0-2-.895-2-2z" fill="#dc9600"/></g><g><path d="m47 14v-3c0-1.105.895-2 2-2h2c1.105 0 2 .895 2 2v3h1v-3c0-1.657-1.343-3-3-3h-2c-1.657 0-3 1.343-3 3v3z" fill="#505050"/></g><g><path d="m52 18c0-1.105-.895-2-2-2s-2 .895-2 2c0 .738.405 1.376 1 1.723v1.277c0 .552.448 1 1 1s1-.448 1-1v-1.277c.595-.347 1-.985 1-1.723z" fill="#be7800"/></g><g><path d="m18 52h28v2h-28z" fill="#288cb4"/></g><g><path d="m47 60h-30c-.552 0-1-.448-1-1v-4c0-.552.448-1 1-1h30c.552 0 1 .448 1 1v4c0 .552-.448 1-1 1z" fill="#64c8f0"/></g><g><path d="m34 58c.552 0 1-.448 1-1 0-.552-.448-1-1-1-.552 0-1 .448-1 1 0 .552.448 1 1 1z" fill="#288cb4"/></g><g><path d="m38 58c.552 0 1-.448 1-1 0-.552-.448-1-1-1-.552 0-1 .448-1 1 0 .552.448 1 1 1z" fill="#288cb4"/></g><g><path d="m30 58c.552 0 1-.448 1-1 0-.552-.448-1-1-1-.552 0-1 .448-1 1 0 .552.448 1 1 1z" fill="#288cb4"/></g><g><path d="m26 58c.552 0 1-.448 1-1 0-.552-.448-1-1-1-.552 0-1 .448-1 1 0 .552.448 1 1 1z" fill="#fa6450"/></g><g><path d="m47 52h-30c-.552 0-1-.448-1-1v-4c0-.552.448-1 1-1h30c.552 0 1 .448 1 1v4c0 .552-.448 1-1 1z" fill="#64c8f0"/></g><g><path d="m20 51v-4c0-.552.448-1 1-1h-4c-.552 0-1 .448-1 1v4c0 .552.448 1 1 1h4c-.552 0-1-.448-1-1z" fill="#46aad2"/></g><g><path d="m20 59v-4c0-.552.448-1 1-1h-4c-.552 0-1 .448-1 1v4c0 .552.448 1 1 1h4c-.552 0-1-.448-1-1z" fill="#46aad2"/></g><g><path d="m34 50c.552 0 1-.448 1-1 0-.552-.448-1-1-1-.552 0-1 .448-1 1 0 .552.448 1 1 1z" fill="#288cb4"/></g><g><path d="m38 50c.552 0 1-.448 1-1 0-.552-.448-1-1-1-.552 0-1 .448-1 1 0 .552.448 1 1 1z" fill="#288cb4"/></g><g><path d="m30 50c.552 0 1-.448 1-1 0-.552-.448-1-1-1-.552 0-1 .448-1 1 0 .552.448 1 1 1z" fill="#288cb4"/></g><g><path d="m26 50c.552 0 1-.448 1-1 0-.552-.448-1-1-1-.552 0-1 .448-1 1 0 .552.448 1 1 1z" fill="#fa6450"/></g></g></g></svg>